<svg width="585" height="387" viewBox="0 0 585 387" fill="none" xmlns="http://www.w3.org/2000/svg">
    <g clip-path="url(#clip0_348_90)">
        <path d="M380.646 240.28L337.68 209.427H295.928L338.894 240.28H380.646Z" fill="white"/>
        <path d="M407.028 289.19H448.78L405.772 258.316H364.02L407.028 289.19Z" fill="white"/>
        <path d="M475.133 338.1H516.907L473.899 307.227H432.125L475.133 338.1Z" fill="white"/>
        <path d="M541.991 356.116H500.238L543.225 386.989H584.999L541.991 356.116Z" fill="white"/>
        <path d="M135.183 302.301V141.932L258.426 43.9739V116.501H250.419V134.073H259.755V144.178C252.603 145.666 247.212 152.015 247.212 159.599C247.212 168.28 254.28 175.347 262.962 175.347C271.644 175.347 278.711 168.28 278.711 159.599H272.287C272.287 164.747 268.099 168.934 262.951 168.934C257.803 168.934 253.615 164.747 253.615 159.599C253.615 154.452 257.803 150.264 262.951 150.264H266.158V134.063H275.494V116.49H267.487V36.7592L286.127 21.95L285.937 0L135.183 119.834V86.5344L124.95 94.2554V127.956L116.458 134.706V100.669L91.7 119.349V154.389L75.5707 167.215V131.531L0.916016 187.867V278.674L75.5707 219.321V189.323L91.7 176.497V333.522L17.2141 387H67.7645L264.534 245.722L461.303 387H511.853L264.544 209.427L135.193 302.301H135.183ZM40.0947 227.696L15.4946 247.252V217.328L40.0947 198.763V227.686V227.696ZM116.469 156.815L124.961 150.064V309.642L116.469 315.739V156.815Z" fill="white"/>
        <path d="M233.15 303.155H258.985V337.763H233.15V303.155Z" fill="white"/>
        <path d="M270.094 303.155H295.928V337.763H270.094V303.155Z" fill="white"/>
        <path d="M233.15 351.496H258.985V386.104H233.15V351.496Z" fill="white"/>
        <path d="M270.094 351.496H295.928V386.104H270.094V351.496Z" fill="white"/>
        <path d="M27.7949 278.663H75.571V240.681L27.7949 278.663Z" fill="white"/>
    </g>
    <defs>
        <clipPath id="clip0_348_90">
            <rect width="584.083" height="387" fill="white" transform="translate(0.916016)"/>
        </clipPath>
    </defs>
</svg>
