<svg width="464" height="465" viewBox="0 0 464 465" fill="none" xmlns="http://www.w3.org/2000/svg">
<path d="M254.889 459.904C251.732 464.443 248.131 464.836 243.042 463.4C218.578 456.497 193.978 450.074 169.588 443.524C244.047 369.064 318.53 294.582 393.747 219.364C384.371 216.812 376.361 214.602 368.322 212.503C367.677 212.334 366.749 212.806 366.102 213.216C365.407 213.656 364.889 214.374 364.292 214.97C304.477 274.785 244.652 334.59 184.886 394.454C182.875 396.469 181.235 397.034 178.332 396.24C152.767 389.248 127.138 382.485 101.719 375.706C177.426 299.999 253.167 224.257 329.65 147.775C320.577 144.891 312.905 142.353 305.147 140.116C304.223 139.85 302.584 140.977 301.686 141.871C283.152 160.314 264.675 178.817 246.189 197.31C238.863 204.639 231.583 212.015 224.161 219.246C223.225 220.158 221.368 221.016 220.249 220.722C194.06 213.826 167.913 206.768 141.355 199.631C142.092 198.698 142.579 197.935 143.204 197.31C188.865 151.628 234.545 105.966 280.17 60.2501C281.651 58.7665 282.908 58.4939 284.867 59.0232C310.109 65.8422 335.369 72.5909 360.636 79.3162C362.583 79.8344 363.486 80.8083 364.023 82.8634C368.718 100.849 373.615 118.782 378.351 136.757C379.001 139.226 380.125 140.389 382.734 141.062C400.618 145.671 418.434 150.548 436.291 155.261C438.466 155.835 439.597 156.785 440.211 159.126C447.947 188.593 455.767 218.039 463.757 247.439C464.484 250.114 463.49 251.346 461.898 252.937C392.94 321.85 324.006 390.787 254.889 459.904Z" fill="white"/>
<path d="M133.64 71.0992C156.742 47.9945 179.683 25.0892 202.551 2.11195C204.428 0.226059 205.979 -0.458634 208.78 0.309268C233.998 7.22212 259.273 13.923 284.532 20.6866C284.953 20.7995 285.373 20.9179 285.72 21.0133C212.876 93.8563 140.156 166.576 66.6653 240.067C70.6321 241.163 73.4016 241.946 76.1806 242.693C80.8165 243.94 85.5334 244.943 90.0688 246.483C92.608 247.345 94.0167 246.565 95.6889 244.865C103.718 236.704 111.802 228.596 120.008 220.615C120.997 219.654 123.035 218.876 124.274 219.202C150.366 226.056 176.413 233.081 202.943 240.2C202.096 241.19 201.488 242.007 200.775 242.719C174.195 269.313 147.596 295.888 121.045 322.511C119.632 323.928 118.474 324.385 116.401 323.825C86.636 315.789 56.8317 307.899 27.0713 299.847C25.8873 299.526 24.4514 298.101 24.1319 296.92C16.0822 267.166 8.19075 237.37 0.180939 207.606C-0.446109 205.276 0.648265 204.077 2.05573 202.671C45.8692 158.886 89.6627 115.082 133.64 71.0992Z" fill="white"/>
</svg>
