<svg width="2277" height="1140" viewBox="0 0 2277 1140" fill="none" xmlns="http://www.w3.org/2000/svg">
  <path d="M49.6092 1009.86C82.7292 1009.86 107.579 1017.97 107.579 1051.44C107.579 1084.91 82.7292 1093.38 49.6092 1093.38H30.5792V1137.61H0.449219V1009.86H49.6092ZM30.5692 1035.23V1068H50.4792C64.5792 1068 75.6792 1064.83 75.6792 1051.44C75.6792 1038.05 64.5792 1035.23 50.4792 1035.23H30.5692Z" fill="#1E4B7B"/>
  <path d="M119.738 1009.86H217.708V1036.29H149.868V1058.67H214.008V1085.28H149.868V1111.01H217.708V1137.62H119.738V1009.87V1009.86Z" fill="#1E4B7B"/>
  <path d="M236.568 1009.86H334.538V1036.29H266.698V1058.67H330.838V1085.28H266.698V1111.01H334.538V1137.62H236.568V1009.87V1009.86Z" fill="#1E4B7B"/>
  <path d="M383.519 1111H444.839V1137.61H353.389V1009.86H383.519V1111Z" fill="#1E4B7B"/>
  <path d="M486.429 1137.6H456.299V1009.85H486.429V1137.6Z" fill="#1E4B7B"/>
  <path d="M589.87 1137.6L538.59 1049.5V1137.6H509.52V1009.85H546.169L597.44 1097.95V1009.85H626.51V1137.6H589.859H589.87Z" fill="#1E4B7B"/>
  <path d="M764.309 1049.85H734.709C731.889 1041.04 723.079 1032.58 706.689 1032.58C688.189 1032.58 673.739 1046.33 673.739 1073.28C673.739 1100.23 686.959 1115.04 707.219 1115.04C721.139 1115.04 735.589 1109.75 735.589 1093.54V1091.07H704.759V1066.4H765.729V1137.59H742.649L741.769 1123.49C733.489 1134.77 720.979 1139.88 702.649 1139.88C665.119 1139.88 641.859 1114.15 641.859 1073.27C641.859 1032.39 668.289 1007.72 707.049 1007.72C735.419 1007.72 758.149 1021.99 764.319 1049.83L764.309 1049.85Z" fill="#1E4B7B"/>
  <path d="M942.459 1090.03C937.699 1119.63 913.919 1139.9 881.669 1139.9C841.849 1139.9 817.709 1114.52 817.709 1073.65C817.709 1032.78 842.549 1007.75 882.549 1007.75C914.449 1007.75 937.349 1028.54 941.579 1057.62H911.979C908.629 1040.17 895.769 1032.6 881.499 1032.6C863.699 1032.6 849.609 1047.58 849.609 1073.66C849.609 1099.74 863.529 1115.07 881.859 1115.07C895.079 1115.07 908.989 1109.43 912.869 1090.05H942.469L942.459 1090.03Z" fill="#1E4B7B"/>
  <path d="M1018.23 1139.9C978.939 1139.9 951.979 1113.64 951.979 1073.82C951.979 1034 978.939 1007.74 1018.23 1007.74C1057.52 1007.74 1084.48 1033.99 1084.48 1073.82C1084.48 1113.65 1057.35 1139.9 1018.23 1139.9ZM1018.23 1115.05C1037.09 1115.05 1052.59 1100.95 1052.59 1073.82C1052.59 1046.69 1037.09 1032.59 1018.23 1032.59C999.369 1032.59 983.869 1046.69 983.869 1073.82C983.869 1100.95 999.369 1115.05 1018.23 1115.05Z" fill="#1E4B7B"/>
  <path d="M1180.35 1137.6L1129.08 1049.5V1137.6H1100.01V1009.85H1136.66L1187.93 1097.95V1009.85H1217V1137.6H1180.35Z" fill="#1E4B7B"/>
  <path d="M1310.04 1046.86C1307.04 1037.17 1297.71 1031.88 1284.84 1031.88C1273.03 1031.88 1264.58 1036.28 1264.58 1044.21C1264.58 1050.55 1270.39 1055.13 1279.38 1057.07L1296.83 1060.59C1317.45 1064.82 1343.52 1071.16 1343.52 1097.95C1343.52 1124.74 1316.56 1139.89 1289.95 1139.89C1257 1139.89 1235.85 1123.68 1231.1 1096.01H1261.06C1264.41 1109.4 1274.98 1115.57 1290.66 1115.57C1301.06 1115.57 1312.51 1112.22 1312.51 1101.65C1312.51 1093.37 1302.82 1089.32 1288.72 1086.32L1273.21 1083.15C1252.42 1078.92 1233.57 1068.88 1233.57 1045.97C1233.57 1019.89 1261.58 1007.73 1286.61 1007.73C1311.64 1007.73 1335.59 1018.65 1339.82 1046.85H1310.04V1046.86Z" fill="#1E4B7B"/>
  <path d="M1384.75 1036.29H1343.87V1009.86H1456.11V1036.29H1415.05V1137.61H1384.74V1036.29H1384.75Z" fill="#1E4B7B"/>
  <path d="M1519.2 1089.5H1498.76V1137.6H1468.63V1009.85H1517.79C1550.92 1009.85 1575.76 1017.6 1575.76 1049.32C1575.76 1068.17 1565.37 1078.92 1550.74 1084.56L1582.28 1137.6H1546.86L1519.2 1089.5ZM1498.76 1035.23V1064.13H1518.67C1532.94 1064.13 1543.87 1061.84 1543.87 1049.68C1543.87 1037.52 1532.95 1035.23 1518.67 1035.23H1498.76Z" fill="#1E4B7B"/>
  <path d="M1622.64 1009.86V1086.16C1622.64 1104.84 1627.05 1115.23 1648.02 1115.23C1668.99 1115.23 1672.86 1103.25 1672.86 1084.39V1009.86H1702.99V1081.93C1702.99 1121.22 1687.84 1139.9 1648.01 1139.9C1608.18 1139.9 1592.5 1125.1 1592.5 1082.99V1009.86H1622.63H1622.64Z" fill="#1E4B7B"/>
  <path d="M1840.08 1090.03C1835.32 1119.63 1811.54 1139.9 1779.29 1139.9C1739.47 1139.9 1715.33 1114.52 1715.33 1073.65C1715.33 1032.78 1740.17 1007.75 1780.17 1007.75C1812.07 1007.75 1834.97 1028.54 1839.2 1057.62H1809.6C1806.25 1040.17 1793.39 1032.6 1779.12 1032.6C1761.32 1032.6 1747.23 1047.58 1747.23 1073.66C1747.23 1099.74 1761.15 1115.07 1779.48 1115.07C1792.7 1115.07 1806.61 1109.43 1810.49 1090.05H1840.09L1840.08 1090.03Z" fill="#1E4B7B"/>
  <path d="M1881.85 1036.29H1840.97V1009.86H1953.21V1036.29H1912.15V1137.61H1881.84V1036.29H1881.85Z" fill="#1E4B7B"/>
  <path d="M1995.86 1137.6H1965.73V1009.85H1995.86V1137.6Z" fill="#1E4B7B"/>
  <path d="M2077.44 1139.9C2038.15 1139.9 2011.19 1113.64 2011.19 1073.82C2011.19 1034 2038.15 1007.74 2077.44 1007.74C2116.73 1007.74 2143.69 1033.99 2143.69 1073.82C2143.69 1113.65 2116.56 1139.9 2077.44 1139.9ZM2077.44 1115.05C2096.3 1115.05 2111.8 1100.95 2111.8 1073.82C2111.8 1046.69 2096.3 1032.59 2077.44 1032.59C2058.58 1032.59 2043.08 1046.69 2043.08 1073.82C2043.08 1100.95 2058.58 1115.05 2077.44 1115.05Z" fill="#1E4B7B"/>
  <path d="M2239.55 1137.6L2188.28 1049.5V1137.6H2159.21V1009.85H2195.86L2247.13 1097.95V1009.85H2276.2V1137.6H2239.55Z" fill="#1E4B7B"/>
  <path d="M589.939 251.27V861.78H635.099V253.15L891.709 141.04V862.58L927.189 860.99V125.54V108.5L589.939 251.27Z" fill="#AD8A4C"/>
  <path d="M1677.84 733.91L1436.38 744.31V171.42L1338.82 104.84V867.37H1436.38H1707.46L1677.84 733.91Z" fill="#1E4B7B"/>
  <path d="M958.049 106.771V869.311H1089.74V604.681L1307.97 465.47V242.23L958.059 106.781L958.049 106.771ZM1188.82 461.7L1096.01 526.921V214.63L1188.82 252.26V461.71V461.7Z" fill="#1E4B7B"/>
  <path d="M1281.69 160.55L934.479 0.600098L778.609 81.5601V45.1301L693.109 36.8701V125.97L595.65 176.6L569.02 224.87L935.16 55.3701L1301.18 209.33L1281.69 160.55Z" fill="#1E4B7B"/>
  <path d="M792.1 266.5V862.58L809.84 860.99V255.45L792.1 266.5Z" fill="#AD8A4C"/>
  <path d="M713.439 862.58L731.179 860.99V304.46L713.439 315.51V862.58Z" fill="#AD8A4C"/>
</svg>
