<svg width="275" height="61" viewBox="0 0 275 61" fill="none" xmlns="http://www.w3.org/2000/svg">
<path d="M63.28 46V22.48H67.664L69.552 34.672L69.712 35.92H69.776L69.936 34.672L71.824 22.48H76.208V46H73.008V30.224H72.816L72.688 31.216L70.64 46H68.848L66.8 31.216L66.672 30.224H66.48V46H63.28ZM83.036 46.256C81.66 46.256 80.524 45.8133 79.628 44.928C78.7427 44.032 78.3 42.7467 78.3 41.072C78.3 40.0267 78.4387 39.0933 78.716 38.272C79.004 37.44 79.3507 36.6933 79.756 36.032C80.172 35.3707 80.572 34.7787 80.956 34.256C80.4013 33.104 79.9853 31.9733 79.708 30.864C79.4307 29.744 79.292 28.5707 79.292 27.344C79.292 25.8827 79.6493 24.6667 80.364 23.696C81.0787 22.7147 82.1293 22.224 83.516 22.224C84.8707 22.224 85.8947 22.704 86.588 23.664C87.2813 24.624 87.628 25.8027 87.628 27.2C87.628 28.3627 87.3187 29.52 86.7 30.672C86.0813 31.8133 85.3293 32.9653 84.444 34.128C84.956 35.2907 85.3933 36.2133 85.756 36.896C86.1187 37.568 86.4493 38.128 86.748 38.576C86.9613 37.9787 87.1267 37.3493 87.244 36.688C87.372 36.016 87.452 35.5467 87.484 35.28L90.236 35.792C90.1613 36.6987 89.9747 37.664 89.676 38.688C89.3773 39.712 89.0307 40.6133 88.636 41.392C88.8493 41.6267 89.1107 41.8613 89.42 42.096C89.7293 42.32 90.0013 42.48 90.236 42.576V46.256C89.9373 46.256 89.5693 46.128 89.132 45.872C88.6947 45.616 88.2733 45.3173 87.868 44.976C87.4733 44.6347 87.1747 44.336 86.972 44.08C86.4813 44.7307 85.9427 45.2587 85.356 45.664C84.7693 46.0587 83.996 46.256 83.036 46.256ZM83.196 43.248C83.6333 43.248 84.0013 43.12 84.3 42.864C84.5987 42.608 84.8813 42.288 85.148 41.904C84.7213 41.2107 84.284 40.496 83.836 39.76C83.3987 39.024 82.9293 38.2027 82.428 37.296C82.1933 37.6907 82.0013 38.208 81.852 38.848C81.7027 39.4773 81.628 40.0427 81.628 40.544C81.628 41.2267 81.756 41.8507 82.012 42.416C82.268 42.9707 82.6627 43.248 83.196 43.248ZM83.164 31.184C83.548 30.5867 83.9053 29.936 84.236 29.232C84.5667 28.528 84.732 27.8667 84.732 27.248C84.732 26.6187 84.6467 26.0853 84.476 25.648C84.3053 25.2 83.9853 24.976 83.516 24.976C83.0573 24.976 82.7373 25.2053 82.556 25.664C82.3747 26.1227 82.284 26.6667 82.284 27.296C82.284 27.9573 82.364 28.6133 82.524 29.264C82.6947 29.9147 82.908 30.5547 83.164 31.184ZM96.4713 46.256C95.5219 46.256 94.7326 46.1013 94.1033 45.792C93.4739 45.472 92.9779 45.0133 92.6153 44.416C92.2526 43.8187 91.9913 43.0987 91.8313 42.256C91.6819 41.4133 91.6073 40.464 91.6073 39.408L94.9993 39.088C94.9993 39.6 95.0153 40.096 95.0473 40.576C95.0899 41.0453 95.1593 41.472 95.2552 41.856C95.3619 42.2293 95.5113 42.528 95.7033 42.752C95.9059 42.976 96.1619 43.088 96.4713 43.088C96.9833 43.088 97.3459 42.8533 97.5593 42.384C97.7726 41.904 97.8793 41.328 97.8793 40.656C97.8793 39.984 97.7033 39.2853 97.3513 38.56C96.9993 37.8347 96.5779 37.1467 96.0873 36.496C95.2553 35.3867 94.5246 34.3573 93.8953 33.408C93.2766 32.4587 92.7913 31.5253 92.4393 30.608C92.0979 29.6907 91.9273 28.7307 91.9273 27.728C91.9273 26.9387 92.0286 26.2133 92.2313 25.552C92.4339 24.88 92.7273 24.2987 93.1113 23.808C93.5059 23.3067 93.9806 22.9173 94.5353 22.64C95.0899 22.3627 95.7246 22.224 96.4393 22.224C97.3246 22.224 98.0713 22.3733 98.6793 22.672C99.2979 22.9707 99.7939 23.3973 100.167 23.952C100.551 24.5067 100.829 25.168 100.999 25.936C101.181 26.6933 101.271 27.536 101.271 28.464L97.8793 28.784C97.8793 28.3893 97.8579 27.9947 97.8153 27.6C97.7833 27.1947 97.7193 26.8267 97.6233 26.496C97.5273 26.1653 97.3886 25.8987 97.2073 25.696C97.0259 25.4933 96.7913 25.392 96.5033 25.392C96.0553 25.392 95.7459 25.584 95.5753 25.968C95.4046 26.3413 95.3193 26.8747 95.3193 27.568C95.3193 28.464 95.5593 29.328 96.0393 30.16C96.5193 30.992 97.1646 31.9627 97.9753 33.072C98.9459 34.384 99.7353 35.5893 100.343 36.688C100.962 37.7867 101.271 39.0027 101.271 40.336C101.271 41.1787 101.181 41.9627 100.999 42.688C100.818 43.4027 100.53 44.0267 100.135 44.56C99.7513 45.0933 99.2553 45.5093 98.6473 45.808C98.0499 46.1067 97.3246 46.256 96.4713 46.256ZM112.509 46.256C111.528 46.256 110.691 46.0373 109.997 45.6C109.315 45.152 108.792 44.544 108.429 43.776C108.077 43.008 107.901 42.1387 107.901 41.168V27.312C107.901 26.352 108.083 25.488 108.445 24.72C108.819 23.952 109.352 23.344 110.045 22.896C110.739 22.448 111.56 22.224 112.509 22.224C113.224 22.224 113.864 22.3573 114.429 22.624C114.995 22.8907 115.475 23.2587 115.869 23.728C116.275 24.1867 116.584 24.7253 116.797 25.344C117.011 25.952 117.117 26.608 117.117 27.312V30.544H113.885V27.312C113.885 26.8213 113.784 26.4107 113.581 26.08C113.379 25.7493 113.043 25.584 112.573 25.584C112.147 25.584 111.837 25.7547 111.645 26.096C111.453 26.4373 111.357 26.8427 111.357 27.312V41.168C111.357 41.6373 111.459 42.0427 111.661 42.384C111.875 42.7253 112.179 42.896 112.573 42.896C113.053 42.896 113.389 42.7307 113.581 42.4C113.784 42.0693 113.885 41.6587 113.885 41.168V37.936H117.117V41.168C117.117 42.128 116.931 42.992 116.557 43.76C116.184 44.528 115.651 45.136 114.957 45.584C114.275 46.032 113.459 46.256 112.509 46.256ZM123.034 46.224C121.743 46.224 120.73 45.792 119.994 44.928C119.258 44.0533 118.89 42.9493 118.89 41.616V32.848C118.89 31.5147 119.258 30.416 119.994 29.552C120.73 28.6773 121.743 28.24 123.034 28.24C124.314 28.24 125.322 28.6773 126.058 29.552C126.805 30.416 127.178 31.5147 127.178 32.848V41.616C127.178 42.9493 126.805 44.0533 126.058 44.928C125.322 45.792 124.314 46.224 123.034 46.224ZM123.034 43.408C123.45 43.408 123.738 43.2427 123.898 42.912C124.058 42.5707 124.138 42.1387 124.138 41.616V32.848C124.138 32.3147 124.058 31.8827 123.898 31.552C123.738 31.2213 123.45 31.056 123.034 31.056C122.618 31.056 122.33 31.2213 122.17 31.552C122.01 31.8827 121.93 32.3147 121.93 32.848V41.616C121.93 42.1493 122.01 42.5813 122.17 42.912C122.33 43.2427 122.618 43.408 123.034 43.408ZM128.613 46V28.496H131.845V29.968C132.229 29.5947 132.661 29.216 133.141 28.832C133.621 28.4373 134.063 28.24 134.469 28.24C135.002 28.24 135.45 28.4107 135.812 28.752C136.175 29.0933 136.447 29.5253 136.628 30.048C136.81 30.5707 136.901 31.1093 136.901 31.664V46H133.669V32.304C133.669 31.9627 133.61 31.7227 133.493 31.584C133.375 31.4453 133.178 31.376 132.901 31.376C132.666 31.376 132.463 31.4613 132.293 31.632C132.133 31.792 131.983 31.984 131.845 32.208V46H128.613ZM142.68 46.256C141.922 46.256 141.261 46.128 140.696 45.872C140.13 45.616 139.661 45.2533 139.288 44.784C138.914 44.304 138.632 43.7387 138.44 43.088C138.258 42.4373 138.168 41.712 138.168 40.912H141.176C141.176 41.6267 141.288 42.2507 141.512 42.784C141.746 43.3067 142.136 43.568 142.68 43.568C143.149 43.568 143.453 43.3707 143.592 42.976C143.73 42.5813 143.8 42.128 143.8 41.616C143.8 41.0187 143.565 40.4107 143.096 39.792C142.637 39.1627 142.157 38.6027 141.656 38.112C140.792 37.2587 140.072 36.416 139.496 35.584C138.93 34.752 138.648 33.776 138.648 32.656C138.648 31.3333 138.994 30.2667 139.688 29.456C140.381 28.6453 141.368 28.24 142.648 28.24C143.416 28.24 144.061 28.3413 144.584 28.544C145.117 28.7467 145.544 29.0507 145.864 29.456C146.184 29.8613 146.413 30.3573 146.552 30.944C146.701 31.5307 146.776 32.208 146.776 32.976H143.768C143.768 32.4213 143.709 31.9413 143.592 31.536C143.474 31.1307 143.181 30.928 142.712 30.928C142.328 30.928 142.056 31.0933 141.896 31.424C141.736 31.744 141.656 32.1547 141.656 32.656C141.656 33.2427 141.794 33.7653 142.072 34.224C142.36 34.672 142.834 35.2213 143.496 35.872C144.328 36.6827 145.085 37.5467 145.767 38.464C146.461 39.3813 146.808 40.3787 146.808 41.456C146.808 42.16 146.712 42.8053 146.52 43.392C146.338 43.9787 146.066 44.4853 145.704 44.912C145.352 45.3387 144.92 45.6693 144.408 45.904C143.906 46.1387 143.33 46.256 142.68 46.256ZM152.785 46.256C151.772 46.256 150.999 46.032 150.465 45.584C149.932 45.136 149.564 44.496 149.361 43.664C149.169 42.832 149.073 41.84 149.073 40.688V31.408H147.441V28.496H149.073V24.176H152.305V28.496H154.529V31.408H152.305V41.152C152.305 41.8347 152.407 42.3413 152.609 42.672C152.812 42.992 153.143 43.152 153.601 43.152C153.804 43.152 153.98 43.136 154.129 43.104C154.289 43.072 154.417 43.0347 154.513 42.992V45.952C154.3 46.0373 154.065 46.1067 153.809 46.16C153.564 46.224 153.223 46.256 152.785 46.256ZM155.488 46V28.496H158.72V30.448C158.784 30.0213 158.981 29.6427 159.312 29.312C159.642 28.9813 160.042 28.72 160.512 28.528C160.992 28.336 161.472 28.24 161.952 28.24V31.824C161.813 31.7707 161.664 31.7387 161.504 31.728C161.354 31.7067 161.205 31.696 161.056 31.696C160.352 31.696 159.786 31.888 159.36 32.272C158.933 32.656 158.72 33.1787 158.72 33.84V46H155.488ZM165.513 46.256C164.98 46.256 164.532 46.0853 164.169 45.744C163.807 45.4027 163.535 44.9707 163.353 44.448C163.172 43.9147 163.081 43.376 163.081 42.832V28.496H166.313V42.192C166.313 42.5227 166.372 42.7627 166.489 42.912C166.617 43.0507 166.815 43.12 167.081 43.12C167.316 43.12 167.513 43.04 167.673 42.88C167.844 42.7093 167.999 42.512 168.137 42.288V28.496H171.369V46H168.137V44.528C167.753 44.8907 167.321 45.2693 166.841 45.664C166.361 46.0587 165.919 46.256 165.513 46.256ZM176.924 46.24C175.506 46.24 174.46 45.7973 173.788 44.912C173.127 44.0267 172.796 42.7947 172.796 41.216V33.264C172.796 31.6747 173.127 30.4427 173.788 29.568C174.46 28.6827 175.506 28.24 176.924 28.24C178.343 28.24 179.388 28.6827 180.06 29.568C180.743 30.4533 181.084 31.6853 181.084 33.264V34.64H177.852V32.848C177.852 32.3573 177.788 31.9467 177.66 31.616C177.532 31.2853 177.287 31.12 176.924 31.12C176.562 31.12 176.322 31.2907 176.204 31.632C176.087 31.9627 176.028 32.368 176.028 32.848V41.632C176.028 42.112 176.087 42.5227 176.204 42.864C176.322 43.1947 176.562 43.36 176.924 43.36C177.287 43.36 177.532 43.1947 177.66 42.864C177.788 42.5333 177.852 42.1227 177.852 41.632V39.84H181.084V41.216C181.084 42.7947 180.743 44.0267 180.06 44.912C179.388 45.7973 178.343 46.24 176.924 46.24ZM187.223 46.256C186.209 46.256 185.436 46.032 184.903 45.584C184.369 45.136 184.001 44.496 183.799 43.664C183.607 42.832 183.511 41.84 183.511 40.688V31.408H181.879V28.496H183.511V24.176H186.743V28.496H188.967V31.408H186.743V41.152C186.743 41.8347 186.844 42.3413 187.047 42.672C187.249 42.992 187.58 43.152 188.039 43.152C188.241 43.152 188.417 43.136 188.567 43.104C188.727 43.072 188.855 43.0347 188.951 42.992V45.952C188.737 46.0373 188.503 46.1067 188.247 46.16C188.001 46.224 187.66 46.256 187.223 46.256ZM190.085 46V28.496H193.317V46H190.085ZM190.085 25.712V22.48H193.317V25.712H190.085ZM199.065 46.224C197.775 46.224 196.761 45.792 196.025 44.928C195.289 44.0533 194.921 42.9493 194.921 41.616V32.848C194.921 31.5147 195.289 30.416 196.025 29.552C196.761 28.6773 197.775 28.24 199.065 28.24C200.345 28.24 201.353 28.6773 202.089 29.552C202.836 30.416 203.209 31.5147 203.209 32.848V41.616C203.209 42.9493 202.836 44.0533 202.089 44.928C201.353 45.792 200.345 46.224 199.065 46.224ZM199.065 43.408C199.481 43.408 199.769 43.2427 199.929 42.912C200.089 42.5707 200.169 42.1387 200.169 41.616V32.848C200.169 32.3147 200.089 31.8827 199.929 31.552C199.769 31.2213 199.481 31.056 199.065 31.056C198.649 31.056 198.361 31.2213 198.201 31.552C198.041 31.8827 197.961 32.3147 197.961 32.848V41.616C197.961 42.1493 198.041 42.5813 198.201 42.912C198.361 43.2427 198.649 43.408 199.065 43.408ZM204.644 46V28.496H207.876V29.968C208.26 29.5947 208.692 29.216 209.172 28.832C209.652 28.4373 210.094 28.24 210.5 28.24C211.033 28.24 211.481 28.4107 211.844 28.752C212.206 29.0933 212.478 29.5253 212.66 30.048C212.841 30.5707 212.932 31.1093 212.932 31.664V46H209.7V32.304C209.7 31.9627 209.641 31.7227 209.524 31.584C209.406 31.4453 209.209 31.376 208.932 31.376C208.697 31.376 208.494 31.4613 208.324 31.632C208.164 31.792 208.014 31.984 207.876 32.208V46H204.644ZM219.936 46V22.48H224.32L226.208 34.672L226.368 35.92H226.432L226.592 34.672L228.48 22.48H232.864V46H229.664V30.224H229.472L229.344 31.216L227.296 46H225.504L223.456 31.216L223.328 30.224H223.136V46H219.936ZM235.436 46V22.48H239.82L241.708 34.672L241.868 35.92H241.932L242.092 34.672L243.98 22.48H248.364V46H245.164V30.224H244.972L244.844 31.216L242.796 46H241.004L238.956 31.216L238.828 30.224H238.636V46H235.436ZM255.384 46.256C254.403 46.256 253.566 46.0373 252.872 45.6C252.19 45.152 251.667 44.544 251.304 43.776C250.952 43.008 250.776 42.1387 250.776 41.168V27.312C250.776 26.352 250.958 25.488 251.32 24.72C251.694 23.952 252.227 23.344 252.92 22.896C253.614 22.448 254.435 22.224 255.384 22.224C256.099 22.224 256.739 22.3573 257.304 22.624C257.87 22.8907 258.35 23.2587 258.744 23.728C259.15 24.1867 259.459 24.7253 259.672 25.344C259.886 25.952 259.992 26.608 259.992 27.312V30.544H256.76V27.312C256.76 26.8213 256.659 26.4107 256.456 26.08C256.254 25.7493 255.918 25.584 255.448 25.584C255.022 25.584 254.712 25.7547 254.52 26.096C254.328 26.4373 254.232 26.8427 254.232 27.312V41.168C254.232 41.6373 254.334 42.0427 254.536 42.384C254.75 42.7253 255.054 42.896 255.448 42.896C255.928 42.896 256.264 42.7307 256.456 42.4C256.659 42.0693 256.76 41.6587 256.76 41.168V37.936H259.992V41.168C259.992 42.128 259.806 42.992 259.432 43.76C259.059 44.528 258.526 45.136 257.832 45.584C257.15 46.032 256.334 46.256 255.384 46.256Z" fill="white"/>
<path d="M45.798 20.6311V22.9368C49.7903 26.2882 52.3337 31.3139 52.3337 36.923C52.3337 43.336 49.0092 48.9861 43.9941 52.2425V35.3326L38.584 32.3521V54.6157C37.9942 54.7659 37.3927 54.8874 36.7818 54.9783V20.6422L31.3729 17.6599V54.9777C30.7614 54.8868 30.1599 54.7653 29.5695 54.6151V5.98116L24.1606 3V52.2431C19.1448 48.9861 15.821 43.3354 15.821 36.923C15.821 31.3139 18.3638 26.2882 22.3572 22.9368V20.6311C17.2992 24.2801 14 30.223 14 36.923C14 47.9931 23.0068 57 34.077 57C45.1478 57 54.1546 47.9931 54.1546 36.923C54.1541 30.223 50.8548 24.2801 45.798 20.6311Z" fill="white"/>
</svg>
