<svg width="2830" height="480" viewBox="0 0 2830 480" fill="none" xmlns="http://www.w3.org/2000/svg">
    <path d="M680.99 387V93H724.19C740.59 93 754.257 96.6 765.19 103.8C776.257 111 784.524 121.2 789.99 134.4C795.457 147.6 798.19 163.133 798.19 181C798.19 198.867 795.324 214.267 789.59 227.2C783.857 240.133 775.457 250.267 764.39 257.6C753.457 264.8 740.057 268.733 724.19 269.4V387H680.99ZM724.19 225.4C731.79 225.4 737.79 223.933 742.19 221C746.59 217.933 749.724 213.133 751.59 206.6C753.59 200.067 754.59 191.667 754.59 181.4C754.59 171 753.59 162.533 751.59 156C749.724 149.467 746.524 144.667 741.99 141.6C737.59 138.533 731.657 137 724.19 137V225.4ZM860.928 390.2C844.794 390.2 832.061 384.667 822.728 373.6C813.528 362.4 808.928 348.733 808.928 332.6V222.6C808.928 205.533 813.528 191.667 822.728 181C831.928 170.333 844.794 165 861.328 165C872.128 165 881.394 167.467 889.128 172.4C896.994 177.333 902.994 184.067 907.128 192.6C911.261 201 913.328 210.6 913.328 221.4V285H846.528V332.6C846.528 338.067 847.728 343.133 850.128 347.8C852.661 352.333 856.394 354.6 861.328 354.6C866.528 354.6 870.194 352.467 872.328 348.2C874.594 343.933 875.728 338.733 875.728 332.6V308.6H913.328V333.8C913.328 350.733 908.728 364.4 899.528 374.8C890.461 385.067 877.594 390.2 860.928 390.2ZM846.528 253.4H875.728V222.6C875.728 216.6 874.661 211.4 872.528 207C870.528 202.467 866.794 200.2 861.328 200.2C856.261 200.2 852.528 202.533 850.128 207.2C847.728 211.733 846.528 216.867 846.528 222.6V253.4ZM981.24 390.2C965.107 390.2 952.374 384.667 943.04 373.6C933.84 362.4 929.24 348.733 929.24 332.6V222.6C929.24 205.533 933.84 191.667 943.04 181C952.24 170.333 965.107 165 981.64 165C992.44 165 1001.71 167.467 1009.44 172.4C1017.31 177.333 1023.31 184.067 1027.44 192.6C1031.57 201 1033.64 210.6 1033.64 221.4V285H966.84V332.6C966.84 338.067 968.04 343.133 970.44 347.8C972.974 352.333 976.707 354.6 981.64 354.6C986.84 354.6 990.507 352.467 992.64 348.2C994.907 343.933 996.04 338.733 996.04 332.6V308.6H1033.64V333.8C1033.64 350.733 1029.04 364.4 1019.84 374.8C1010.77 385.067 997.907 390.2 981.24 390.2ZM966.84 253.4H996.04V222.6C996.04 216.6 994.974 211.4 992.84 207C990.84 202.467 987.107 200.2 981.64 200.2C976.574 200.2 972.84 202.533 970.44 207.2C968.04 211.733 966.84 216.867 966.84 222.6V253.4ZM1052.77 387V93H1093.17V387H1052.77ZM1117.22 387V168.2H1157.62V387H1117.22ZM1117.22 133.4V93H1157.62V133.4H1117.22ZM1179.68 387V168.2H1220.08V186.6C1224.88 181.933 1230.28 177.2 1236.28 172.4C1242.28 167.467 1247.81 165 1252.88 165C1259.54 165 1265.14 167.133 1269.68 171.4C1274.21 175.667 1277.61 181.067 1279.88 187.6C1282.14 194.133 1283.28 200.867 1283.28 207.8V387H1242.88V215.8C1242.88 211.533 1242.14 208.533 1240.68 206.8C1239.21 205.067 1236.74 204.2 1233.28 204.2C1230.34 204.2 1227.81 205.267 1225.68 207.4C1223.68 209.4 1221.81 211.8 1220.08 214.6V387H1179.68ZM1360.92 465.4C1349.58 465.4 1338.98 464.133 1329.12 461.6C1319.25 459.067 1311.25 454.933 1305.12 449.2C1299.12 443.6 1296.12 436.2 1296.12 427C1296.12 419.933 1298.05 413.8 1301.92 408.6C1305.92 403.4 1310.45 399.133 1315.52 395.8C1320.58 392.6 1324.65 390.6 1327.72 389.8C1321.18 387.933 1315.45 384.733 1310.52 380.2C1305.72 375.667 1303.32 369.133 1303.32 360.6C1303.32 352.333 1305.98 345.6 1311.32 340.4C1316.65 335.2 1322.38 331 1328.52 327.8C1321.18 323 1315.45 316.733 1311.32 309C1307.32 301.133 1305.32 291.533 1305.32 280.2V220.6C1305.32 204.2 1309.85 190.867 1318.92 180.6C1328.12 170.2 1340.65 165 1356.52 165C1366.78 165 1375.12 167 1381.52 171C1388.05 174.867 1393.18 179.533 1396.92 185C1400.78 178.467 1405.98 173.533 1412.52 170.2C1419.05 166.733 1424.92 165 1430.12 165V201C1424.78 201 1420.12 201.467 1416.12 202.4C1412.12 203.2 1408.92 204.333 1406.52 205.8C1406.92 206.733 1407.32 208.667 1407.72 211.6C1408.25 214.533 1408.52 217.133 1408.52 219.4V281.4C1408.52 296.867 1403.78 309.733 1394.32 320C1384.85 330.267 1372.25 335.4 1356.52 335.4C1352.78 335.4 1350.25 335.267 1348.92 335C1347.18 336.6 1345.78 338.2 1344.72 339.8C1343.78 341.4 1343.32 343.133 1343.32 345C1343.32 349.267 1345.72 352.333 1350.52 354.2C1355.45 355.933 1361.98 357.4 1370.12 358.6C1387.32 361.133 1401.25 366.133 1411.92 373.6C1422.72 381.067 1428.12 393 1428.12 409.4C1428.12 422.2 1424.85 432.733 1418.32 441C1411.92 449.267 1403.58 455.4 1393.32 459.4C1383.05 463.4 1372.25 465.4 1360.92 465.4ZM1361.72 431.4C1368.38 431.4 1374.18 430.2 1379.12 427.8C1384.05 425.4 1386.52 421.667 1386.52 416.6C1386.52 411.533 1384.98 408.067 1381.92 406.2C1378.98 404.467 1373.98 402.733 1366.92 401L1350.12 397C1345.98 399.4 1342.45 402.133 1339.52 405.2C1336.72 408.267 1335.32 411.933 1335.32 416.2C1335.32 420.333 1337.38 423.867 1341.52 426.8C1345.65 429.867 1352.38 431.4 1361.72 431.4ZM1356.92 301.8C1361.18 301.8 1364.25 300.333 1366.12 297.4C1367.98 294.467 1368.92 290.067 1368.92 284.2V220.2C1368.92 214.867 1368.05 210.533 1366.32 207.2C1364.58 203.867 1361.45 202.2 1356.92 202.2C1352.38 202.2 1349.25 203.933 1347.52 207.4C1345.78 210.867 1344.92 215.133 1344.92 220.2V284.2C1344.92 290.067 1345.85 294.467 1347.72 297.4C1349.58 300.333 1352.65 301.8 1356.92 301.8ZM1564.32 390.2C1552.06 390.2 1541.59 387.467 1532.92 382C1524.39 376.4 1517.86 368.8 1513.32 359.2C1508.92 349.6 1506.72 338.733 1506.72 326.6V153.4C1506.72 141.4 1508.99 130.6 1513.52 121C1518.19 111.4 1524.86 103.8 1533.52 98.2C1542.19 92.6 1552.46 89.8 1564.32 89.8C1573.26 89.8 1581.26 91.4667 1588.32 94.8C1595.39 98.1333 1601.39 102.733 1606.32 108.6C1611.39 114.333 1615.26 121.067 1617.92 128.8C1620.59 136.4 1621.92 144.6 1621.92 153.4V193.8H1581.52V153.4C1581.52 147.267 1580.26 142.133 1577.72 138C1575.19 133.867 1570.99 131.8 1565.12 131.8C1559.79 131.8 1555.92 133.933 1553.52 138.2C1551.12 142.467 1549.92 147.533 1549.92 153.4V326.6C1549.92 332.467 1551.19 337.533 1553.72 341.8C1556.39 346.067 1560.19 348.2 1565.12 348.2C1571.12 348.2 1575.32 346.133 1577.72 342C1580.26 337.867 1581.52 332.733 1581.52 326.6V286.2H1621.92V326.6C1621.92 338.6 1619.59 349.4 1614.92 359C1610.26 368.6 1603.59 376.2 1594.92 381.8C1586.39 387.4 1576.19 390.2 1564.32 390.2ZM1695.88 389.8C1679.75 389.8 1667.08 384.4 1657.88 373.6C1648.68 362.667 1644.08 348.867 1644.08 332.2V222.6C1644.08 205.933 1648.68 192.2 1657.88 181.4C1667.08 170.467 1679.75 165 1695.88 165C1711.88 165 1724.48 170.467 1733.68 181.4C1743.02 192.2 1747.68 205.933 1747.68 222.6V332.2C1747.68 348.867 1743.02 362.667 1733.68 373.6C1724.48 384.4 1711.88 389.8 1695.88 389.8ZM1695.88 354.6C1701.08 354.6 1704.68 352.533 1706.68 348.4C1708.68 344.133 1709.68 338.733 1709.68 332.2V222.6C1709.68 215.933 1708.68 210.533 1706.68 206.4C1704.68 202.267 1701.08 200.2 1695.88 200.2C1690.68 200.2 1687.08 202.267 1685.08 206.4C1683.08 210.533 1682.08 215.933 1682.08 222.6V332.2C1682.08 338.867 1683.08 344.267 1685.08 348.4C1687.08 352.533 1690.68 354.6 1695.88 354.6ZM1765.62 387V168.2H1806.02V186.6C1810.82 181.933 1816.22 177.2 1822.22 172.4C1828.22 167.467 1833.75 165 1838.82 165C1845.48 165 1851.08 167.133 1855.62 171.4C1860.15 175.667 1863.55 181.067 1865.82 187.6C1868.08 194.133 1869.22 200.867 1869.22 207.8V387H1828.82V215.8C1828.82 211.533 1828.08 208.533 1826.62 206.8C1825.15 205.067 1822.68 204.2 1819.22 204.2C1816.28 204.2 1813.75 205.267 1811.62 207.4C1809.62 209.4 1807.75 211.8 1806.02 214.6V387H1765.62ZM1941.45 390.2C1931.99 390.2 1923.72 388.6 1916.65 385.4C1909.59 382.2 1903.72 377.667 1899.05 371.8C1894.39 365.8 1890.85 358.733 1888.45 350.6C1886.19 342.467 1885.05 333.4 1885.05 323.4H1922.65C1922.65 332.333 1924.05 340.133 1926.85 346.8C1929.79 353.333 1934.65 356.6 1941.45 356.6C1947.32 356.6 1951.12 354.133 1952.85 349.2C1954.59 344.267 1955.45 338.6 1955.45 332.2C1955.45 324.733 1952.52 317.133 1946.65 309.4C1940.92 301.533 1934.92 294.533 1928.65 288.4C1917.85 277.733 1908.85 267.2 1901.65 256.8C1894.59 246.4 1891.05 234.2 1891.05 220.2C1891.05 203.667 1895.39 190.333 1904.05 180.2C1912.72 170.067 1925.05 165 1941.05 165C1950.65 165 1958.72 166.267 1965.25 168.8C1971.92 171.333 1977.25 175.133 1981.25 180.2C1985.25 185.267 1988.12 191.467 1989.85 198.8C1991.72 206.133 1992.65 214.6 1992.65 224.2H1955.05C1955.05 217.267 1954.32 211.267 1952.85 206.2C1951.39 201.133 1947.72 198.6 1941.85 198.6C1937.05 198.6 1933.65 200.667 1931.65 204.8C1929.65 208.8 1928.65 213.933 1928.65 220.2C1928.65 227.533 1930.39 234.067 1933.85 239.8C1937.45 245.4 1943.39 252.267 1951.65 260.4C1962.05 270.533 1971.52 281.333 1980.05 292.8C1988.72 304.267 1993.05 316.733 1993.05 330.2C1993.05 339 1991.85 347.067 1989.45 354.4C1987.19 361.733 1983.79 368.067 1979.25 373.4C1974.85 378.733 1969.45 382.867 1963.05 385.8C1956.79 388.733 1949.59 390.2 1941.45 390.2ZM2067.77 390.2C2055.11 390.2 2045.44 387.4 2038.77 381.8C2032.11 376.2 2027.51 368.2 2024.97 357.8C2022.57 347.4 2021.37 335 2021.37 320.6V204.6H2000.97V168.2H2021.37V114.2H2061.77V168.2H2089.57V204.6H2061.77V326.4C2061.77 334.933 2063.04 341.267 2065.57 345.4C2068.11 349.4 2072.24 351.4 2077.97 351.4C2080.51 351.4 2082.71 351.2 2084.57 350.8C2086.57 350.4 2088.17 349.933 2089.37 349.4V386.4C2086.71 387.467 2083.77 388.333 2080.57 389C2077.51 389.8 2073.24 390.2 2067.77 390.2ZM2101.55 387V168.2H2141.95V192.6C2142.75 187.267 2145.22 182.533 2149.35 178.4C2153.49 174.267 2158.49 171 2164.35 168.6C2170.35 166.2 2176.35 165 2182.35 165V209.8C2180.62 209.133 2178.75 208.733 2176.75 208.6C2174.89 208.333 2173.02 208.2 2171.15 208.2C2162.35 208.2 2155.29 210.6 2149.95 215.4C2144.62 220.2 2141.95 226.733 2141.95 235V387H2101.55ZM2226.87 390.2C2220.21 390.2 2214.61 388.067 2210.07 383.8C2205.54 379.533 2202.14 374.133 2199.87 367.6C2197.61 360.933 2196.47 354.2 2196.47 347.4V168.2H2236.87V339.4C2236.87 343.533 2237.61 346.533 2239.07 348.4C2240.67 350.133 2243.14 351 2246.47 351C2249.41 351 2251.87 350 2253.87 348C2256.01 345.867 2257.94 343.4 2259.67 340.6V168.2H2300.07V387H2259.67V368.6C2254.87 373.133 2249.47 377.867 2243.47 382.8C2237.47 387.733 2231.94 390.2 2226.87 390.2ZM2369.51 390C2351.78 390 2338.71 384.467 2330.31 373.4C2322.05 362.333 2317.91 346.933 2317.91 327.2V227.8C2317.91 207.933 2322.05 192.533 2330.31 181.6C2338.71 170.533 2351.78 165 2369.51 165C2387.25 165 2400.31 170.533 2408.71 181.6C2417.25 192.667 2421.51 208.067 2421.51 227.8V245H2381.11V222.6C2381.11 216.467 2380.31 211.333 2378.71 207.2C2377.11 203.067 2374.05 201 2369.51 201C2364.98 201 2361.98 203.133 2360.51 207.4C2359.05 211.533 2358.31 216.6 2358.31 222.6V332.4C2358.31 338.4 2359.05 343.533 2360.51 347.8C2361.98 351.933 2364.98 354 2369.51 354C2374.05 354 2377.11 351.933 2378.71 347.8C2380.31 343.667 2381.11 338.533 2381.11 332.4V310H2421.51V327.2C2421.51 346.933 2417.25 362.333 2408.71 373.4C2400.31 384.467 2387.25 390 2369.51 390ZM2498.24 390.2C2485.58 390.2 2475.91 387.4 2469.24 381.8C2462.58 376.2 2457.98 368.2 2455.44 357.8C2453.04 347.4 2451.84 335 2451.84 320.6V204.6H2431.44V168.2H2451.84V114.2H2492.24V168.2H2520.04V204.6H2492.24V326.4C2492.24 334.933 2493.51 341.267 2496.04 345.4C2498.58 349.4 2502.71 351.4 2508.44 351.4C2510.98 351.4 2513.18 351.2 2515.04 350.8C2517.04 350.4 2518.64 349.933 2519.84 349.4V386.4C2517.18 387.467 2514.24 388.333 2511.04 389C2507.98 389.8 2503.71 390.2 2498.24 390.2ZM2534.02 387V168.2H2574.42V387H2534.02ZM2534.02 133.4V93H2574.42V133.4H2534.02ZM2646.27 389.8C2630.14 389.8 2617.47 384.4 2608.27 373.6C2599.07 362.667 2594.47 348.867 2594.47 332.2V222.6C2594.47 205.933 2599.07 192.2 2608.27 181.4C2617.47 170.467 2630.14 165 2646.27 165C2662.27 165 2674.87 170.467 2684.07 181.4C2693.41 192.2 2698.07 205.933 2698.07 222.6V332.2C2698.07 348.867 2693.41 362.667 2684.07 373.6C2674.87 384.4 2662.27 389.8 2646.27 389.8ZM2646.27 354.6C2651.47 354.6 2655.07 352.533 2657.07 348.4C2659.07 344.133 2660.07 338.733 2660.07 332.2V222.6C2660.07 215.933 2659.07 210.533 2657.07 206.4C2655.07 202.267 2651.47 200.2 2646.27 200.2C2641.07 200.2 2637.47 202.267 2635.47 206.4C2633.47 210.533 2632.47 215.933 2632.47 222.6V332.2C2632.47 338.867 2633.47 344.267 2635.47 348.4C2637.47 352.533 2641.07 354.6 2646.27 354.6ZM2716.01 387V168.2H2756.41V186.6C2761.21 181.933 2766.61 177.2 2772.61 172.4C2778.61 167.467 2784.14 165 2789.21 165C2795.87 165 2801.47 167.133 2806.01 171.4C2810.54 175.667 2813.94 181.067 2816.21 187.6C2818.47 194.133 2819.61 200.867 2819.61 207.8V387H2779.21V215.8C2779.21 211.533 2778.47 208.533 2777.01 206.8C2775.54 205.067 2773.07 204.2 2769.61 204.2C2766.67 204.2 2764.14 205.267 2762.01 207.4C2760.01 209.4 2758.14 211.8 2756.41 214.6V387H2716.01Z" fill="white"/>
    <g clip-path="url(#clip0_348_87)">
        <path d="M380.646 240.28L337.68 209.427H295.928L338.894 240.28H380.646Z" fill="white"/>
        <path d="M407.028 289.19H448.78L405.772 258.316H364.02L407.028 289.19Z" fill="white"/>
        <path d="M475.133 338.1H516.907L473.899 307.227H432.125L475.133 338.1Z" fill="white"/>
        <path d="M541.991 356.116H500.238L543.225 386.989H584.999L541.991 356.116Z" fill="white"/>
        <path d="M135.183 302.301V141.932L258.426 43.9739V116.501H250.419V134.073H259.755V144.178C252.603 145.666 247.212 152.015 247.212 159.599C247.212 168.28 254.28 175.347 262.962 175.347C271.644 175.347 278.711 168.28 278.711 159.599H272.287C272.287 164.747 268.099 168.934 262.951 168.934C257.803 168.934 253.615 164.747 253.615 159.599C253.615 154.452 257.803 150.264 262.951 150.264H266.158V134.063H275.494V116.49H267.487V36.7592L286.127 21.95L285.937 0L135.183 119.834V86.5344L124.95 94.2554V127.956L116.458 134.706V100.669L91.7 119.349V154.389L75.5707 167.215V131.531L0.916016 187.867V278.674L75.5707 219.321V189.323L91.7 176.497V333.522L17.2141 387H67.7645L264.534 245.722L461.303 387H511.853L264.544 209.427L135.193 302.301H135.183ZM40.0947 227.696L15.4946 247.252V217.328L40.0947 198.763V227.686V227.696ZM116.469 156.815L124.961 150.064V309.642L116.469 315.739V156.815Z" fill="white"/>
        <path d="M233.15 303.155H258.985V337.763H233.15V303.155Z" fill="white"/>
        <path d="M270.094 303.155H295.928V337.763H270.094V303.155Z" fill="white"/>
        <path d="M233.15 351.496H258.985V386.104H233.15V351.496Z" fill="white"/>
        <path d="M270.094 351.496H295.928V386.104H270.094V351.496Z" fill="white"/>
        <path d="M27.7949 278.663H75.571V240.681L27.7949 278.663Z" fill="white"/>
    </g>
    <defs>
        <clipPath id="clip0_348_87">
            <rect width="584.083" height="387" fill="white" transform="translate(0.916016)"/>
        </clipPath>
    </defs>
</svg>
