<svg width="2165" height="1836" viewBox="0 0 2165 1836" fill="none" xmlns="http://www.w3.org/2000/svg">
<path d="M16 1743V1449H59.2C75.6 1449 89.2667 1452.6 100.2 1459.8C111.267 1467 119.533 1477.2 125 1490.4C130.467 1503.6 133.2 1519.13 133.2 1537C133.2 1554.87 130.333 1570.27 124.6 1583.2C118.867 1596.13 110.467 1606.27 99.4 1613.6C88.4667 1620.8 75.0667 1624.73 59.2 1625.4V1743H16ZM59.2 1581.4C66.8 1581.4 72.8 1579.93 77.2 1577C81.6 1573.93 84.7333 1569.13 86.6 1562.6C88.6 1556.07 89.6 1547.67 89.6 1537.4C89.6 1527 88.6 1518.53 86.6 1512C84.7333 1505.47 81.5333 1500.67 77 1497.6C72.6 1494.53 66.6667 1493 59.2 1493V1581.4ZM195.938 1746.2C179.804 1746.2 167.071 1740.67 157.738 1729.6C148.538 1718.4 143.938 1704.73 143.938 1688.6V1578.6C143.938 1561.53 148.538 1547.67 157.738 1537C166.938 1526.33 179.804 1521 196.338 1521C207.138 1521 216.404 1523.47 224.138 1528.4C232.004 1533.33 238.004 1540.07 242.138 1548.6C246.271 1557 248.338 1566.6 248.338 1577.4V1641H181.538V1688.6C181.538 1694.07 182.738 1699.13 185.138 1703.8C187.671 1708.33 191.404 1710.6 196.338 1710.6C201.538 1710.6 205.204 1708.47 207.338 1704.2C209.604 1699.93 210.738 1694.73 210.738 1688.6V1664.6H248.338V1689.8C248.338 1706.73 243.738 1720.4 234.538 1730.8C225.471 1741.07 212.604 1746.2 195.938 1746.2ZM181.538 1609.4H210.738V1578.6C210.738 1572.6 209.671 1567.4 207.538 1563C205.538 1558.47 201.804 1556.2 196.338 1556.2C191.271 1556.2 187.538 1558.53 185.138 1563.2C182.738 1567.73 181.538 1572.87 181.538 1578.6V1609.4ZM316.25 1746.2C300.117 1746.2 287.383 1740.67 278.05 1729.6C268.85 1718.4 264.25 1704.73 264.25 1688.6V1578.6C264.25 1561.53 268.85 1547.67 278.05 1537C287.25 1526.33 300.117 1521 316.65 1521C327.45 1521 336.717 1523.47 344.45 1528.4C352.317 1533.33 358.317 1540.07 362.45 1548.6C366.583 1557 368.65 1566.6 368.65 1577.4V1641H301.85V1688.6C301.85 1694.07 303.05 1699.13 305.45 1703.8C307.983 1708.33 311.717 1710.6 316.65 1710.6C321.85 1710.6 325.517 1708.47 327.65 1704.2C329.917 1699.93 331.05 1694.73 331.05 1688.6V1664.6H368.65V1689.8C368.65 1706.73 364.05 1720.4 354.85 1730.8C345.783 1741.07 332.917 1746.2 316.25 1746.2ZM301.85 1609.4H331.05V1578.6C331.05 1572.6 329.983 1567.4 327.85 1563C325.85 1558.47 322.117 1556.2 316.65 1556.2C311.583 1556.2 307.85 1558.53 305.45 1563.2C303.05 1567.73 301.85 1572.87 301.85 1578.6V1609.4ZM387.781 1743V1449H428.181V1743H387.781ZM452.234 1743V1524.2H492.634V1743H452.234ZM452.234 1489.4V1449H492.634V1489.4H452.234ZM514.688 1743V1524.2H555.088V1542.6C559.888 1537.93 565.288 1533.2 571.288 1528.4C577.288 1523.47 582.821 1521 587.888 1521C594.554 1521 600.154 1523.13 604.688 1527.4C609.221 1531.67 612.621 1537.07 614.887 1543.6C617.154 1550.13 618.288 1556.87 618.288 1563.8V1743H577.888V1571.8C577.888 1567.53 577.154 1564.53 575.688 1562.8C574.221 1561.07 571.754 1560.2 568.288 1560.2C565.354 1560.2 562.821 1561.27 560.688 1563.4C558.688 1565.4 556.821 1567.8 555.088 1570.6V1743H514.688ZM695.925 1821.4C684.592 1821.4 673.992 1820.13 664.125 1817.6C654.258 1815.07 646.258 1810.93 640.125 1805.2C634.125 1799.6 631.125 1792.2 631.125 1783C631.125 1775.93 633.058 1769.8 636.925 1764.6C640.925 1759.4 645.458 1755.13 650.525 1751.8C655.592 1748.6 659.658 1746.6 662.725 1745.8C656.192 1743.93 650.458 1740.73 645.525 1736.2C640.725 1731.67 638.325 1725.13 638.325 1716.6C638.325 1708.33 640.992 1701.6 646.325 1696.4C651.658 1691.2 657.392 1687 663.525 1683.8C656.192 1679 650.458 1672.73 646.325 1665C642.325 1657.13 640.325 1647.53 640.325 1636.2V1576.6C640.325 1560.2 644.858 1546.87 653.925 1536.6C663.125 1526.2 675.658 1521 691.525 1521C701.792 1521 710.125 1523 716.525 1527C723.058 1530.87 728.192 1535.53 731.925 1541C735.792 1534.47 740.992 1529.53 747.525 1526.2C754.058 1522.73 759.925 1521 765.125 1521V1557C759.792 1557 755.125 1557.47 751.125 1558.4C747.125 1559.2 743.925 1560.33 741.525 1561.8C741.925 1562.73 742.325 1564.67 742.725 1567.6C743.258 1570.53 743.525 1573.13 743.525 1575.4V1637.4C743.525 1652.87 738.792 1665.73 729.325 1676C719.858 1686.27 707.258 1691.4 691.525 1691.4C687.792 1691.4 685.258 1691.27 683.925 1691C682.192 1692.6 680.792 1694.2 679.725 1695.8C678.792 1697.4 678.325 1699.13 678.325 1701C678.325 1705.27 680.725 1708.33 685.525 1710.2C690.458 1711.93 696.992 1713.4 705.125 1714.6C722.325 1717.13 736.258 1722.13 746.925 1729.6C757.725 1737.07 763.125 1749 763.125 1765.4C763.125 1778.2 759.858 1788.73 753.325 1797C746.925 1805.27 738.592 1811.4 728.325 1815.4C718.058 1819.4 707.258 1821.4 695.925 1821.4ZM696.725 1787.4C703.392 1787.4 709.192 1786.2 714.125 1783.8C719.058 1781.4 721.525 1777.67 721.525 1772.6C721.525 1767.53 719.992 1764.07 716.925 1762.2C713.992 1760.47 708.992 1758.73 701.925 1757L685.125 1753C680.992 1755.4 677.458 1758.13 674.525 1761.2C671.725 1764.27 670.325 1767.93 670.325 1772.2C670.325 1776.33 672.392 1779.87 676.525 1782.8C680.658 1785.87 687.392 1787.4 696.725 1787.4ZM691.925 1657.8C696.192 1657.8 699.258 1656.33 701.125 1653.4C702.992 1650.47 703.925 1646.07 703.925 1640.2V1576.2C703.925 1570.87 703.058 1566.53 701.325 1563.2C699.592 1559.87 696.458 1558.2 691.925 1558.2C687.392 1558.2 684.258 1559.93 682.525 1563.4C680.792 1566.87 679.925 1571.13 679.925 1576.2V1640.2C679.925 1646.07 680.858 1650.47 682.725 1653.4C684.592 1656.33 687.658 1657.8 691.925 1657.8ZM899.334 1746.2C887.068 1746.2 876.601 1743.47 867.934 1738C859.401 1732.4 852.868 1724.8 848.334 1715.2C843.934 1705.6 841.734 1694.73 841.734 1682.6V1509.4C841.734 1497.4 844.001 1486.6 848.534 1477C853.201 1467.4 859.868 1459.8 868.534 1454.2C877.201 1448.6 887.468 1445.8 899.334 1445.8C908.268 1445.8 916.268 1447.47 923.334 1450.8C930.401 1454.13 936.401 1458.73 941.334 1464.6C946.401 1470.33 950.268 1477.07 952.934 1484.8C955.601 1492.4 956.934 1500.6 956.934 1509.4V1549.8H916.534V1509.4C916.534 1503.27 915.268 1498.13 912.734 1494C910.201 1489.87 906.001 1487.8 900.134 1487.8C894.801 1487.8 890.934 1489.93 888.534 1494.2C886.134 1498.47 884.934 1503.53 884.934 1509.4V1682.6C884.934 1688.47 886.201 1693.53 888.734 1697.8C891.401 1702.07 895.201 1704.2 900.134 1704.2C906.134 1704.2 910.334 1702.13 912.734 1698C915.268 1693.87 916.534 1688.73 916.534 1682.6V1642.2H956.934V1682.6C956.934 1694.6 954.601 1705.4 949.934 1715C945.268 1724.6 938.601 1732.2 929.934 1737.8C921.401 1743.4 911.201 1746.2 899.334 1746.2ZM1030.89 1745.8C1014.76 1745.8 1002.09 1740.4 992.894 1729.6C983.694 1718.67 979.094 1704.87 979.094 1688.2V1578.6C979.094 1561.93 983.694 1548.2 992.894 1537.4C1002.09 1526.47 1014.76 1521 1030.89 1521C1046.89 1521 1059.49 1526.47 1068.69 1537.4C1078.03 1548.2 1082.69 1561.93 1082.69 1578.6V1688.2C1082.69 1704.87 1078.03 1718.67 1068.69 1729.6C1059.49 1740.4 1046.89 1745.8 1030.89 1745.8ZM1030.89 1710.6C1036.09 1710.6 1039.69 1708.53 1041.69 1704.4C1043.69 1700.13 1044.69 1694.73 1044.69 1688.2V1578.6C1044.69 1571.93 1043.69 1566.53 1041.69 1562.4C1039.69 1558.27 1036.09 1556.2 1030.89 1556.2C1025.69 1556.2 1022.09 1558.27 1020.09 1562.4C1018.09 1566.53 1017.09 1571.93 1017.09 1578.6V1688.2C1017.09 1694.87 1018.09 1700.27 1020.09 1704.4C1022.09 1708.53 1025.69 1710.6 1030.89 1710.6ZM1100.63 1743V1524.2H1141.03V1542.6C1145.83 1537.93 1151.23 1533.2 1157.23 1528.4C1163.23 1523.47 1168.76 1521 1173.83 1521C1180.49 1521 1186.09 1523.13 1190.62 1527.4C1195.16 1531.67 1198.56 1537.07 1200.82 1543.6C1203.09 1550.13 1204.23 1556.87 1204.23 1563.8V1743H1163.83V1571.8C1163.83 1567.53 1163.09 1564.53 1161.63 1562.8C1160.16 1561.07 1157.69 1560.2 1154.23 1560.2C1151.29 1560.2 1148.76 1561.27 1146.63 1563.4C1144.63 1565.4 1142.76 1567.8 1141.03 1570.6V1743H1100.63ZM1276.46 1746.2C1267 1746.2 1258.73 1744.6 1251.66 1741.4C1244.6 1738.2 1238.73 1733.67 1234.06 1727.8C1229.4 1721.8 1225.86 1714.73 1223.46 1706.6C1221.2 1698.47 1220.06 1689.4 1220.06 1679.4H1257.66C1257.66 1688.33 1259.06 1696.13 1261.86 1702.8C1264.8 1709.33 1269.66 1712.6 1276.46 1712.6C1282.33 1712.6 1286.13 1710.13 1287.86 1705.2C1289.6 1700.27 1290.46 1694.6 1290.46 1688.2C1290.46 1680.73 1287.53 1673.13 1281.66 1665.4C1275.93 1657.53 1269.93 1650.53 1263.66 1644.4C1252.86 1633.73 1243.86 1623.2 1236.66 1612.8C1229.6 1602.4 1226.06 1590.2 1226.06 1576.2C1226.06 1559.67 1230.4 1546.33 1239.06 1536.2C1247.73 1526.07 1260.06 1521 1276.06 1521C1285.66 1521 1293.73 1522.27 1300.26 1524.8C1306.93 1527.33 1312.26 1531.13 1316.26 1536.2C1320.26 1541.27 1323.13 1547.47 1324.86 1554.8C1326.73 1562.13 1327.66 1570.6 1327.66 1580.2H1290.06C1290.06 1573.27 1289.33 1567.27 1287.86 1562.2C1286.4 1557.13 1282.73 1554.6 1276.86 1554.6C1272.06 1554.6 1268.66 1556.67 1266.66 1560.8C1264.66 1564.8 1263.66 1569.93 1263.66 1576.2C1263.66 1583.53 1265.4 1590.07 1268.86 1595.8C1272.46 1601.4 1278.4 1608.27 1286.66 1616.4C1297.06 1626.53 1306.53 1637.33 1315.06 1648.8C1323.73 1660.27 1328.06 1672.73 1328.06 1686.2C1328.06 1695 1326.86 1703.07 1324.46 1710.4C1322.2 1717.73 1318.8 1724.07 1314.26 1729.4C1309.86 1734.73 1304.46 1738.87 1298.06 1741.8C1291.8 1744.73 1284.6 1746.2 1276.46 1746.2ZM1402.78 1746.2C1390.12 1746.2 1380.45 1743.4 1373.78 1737.8C1367.12 1732.2 1362.52 1724.2 1359.98 1713.8C1357.58 1703.4 1356.38 1691 1356.38 1676.6V1560.6H1335.98V1524.2H1356.38V1470.2H1396.78V1524.2H1424.58V1560.6H1396.78V1682.4C1396.78 1690.93 1398.05 1697.27 1400.58 1701.4C1403.12 1705.4 1407.25 1707.4 1412.98 1707.4C1415.52 1707.4 1417.72 1707.2 1419.58 1706.8C1421.58 1706.4 1423.18 1705.93 1424.38 1705.4V1742.4C1421.72 1743.47 1418.78 1744.33 1415.58 1745C1412.52 1745.8 1408.25 1746.2 1402.78 1746.2ZM1436.56 1743V1524.2H1476.96V1548.6C1477.76 1543.27 1480.23 1538.53 1484.36 1534.4C1488.5 1530.27 1493.5 1527 1499.36 1524.6C1505.36 1522.2 1511.36 1521 1517.36 1521V1565.8C1515.63 1565.13 1513.76 1564.73 1511.76 1564.6C1509.9 1564.33 1508.03 1564.2 1506.16 1564.2C1497.36 1564.2 1490.3 1566.6 1484.96 1571.4C1479.63 1576.2 1476.96 1582.73 1476.96 1591V1743H1436.56ZM1561.88 1746.2C1555.22 1746.2 1549.62 1744.07 1545.08 1739.8C1540.55 1735.53 1537.15 1730.13 1534.88 1723.6C1532.62 1716.93 1531.48 1710.2 1531.48 1703.4V1524.2H1571.88V1695.4C1571.88 1699.53 1572.62 1702.53 1574.08 1704.4C1575.68 1706.13 1578.15 1707 1581.48 1707C1584.42 1707 1586.88 1706 1588.88 1704C1591.02 1701.87 1592.95 1699.4 1594.68 1696.6V1524.2H1635.08V1743H1594.68V1724.6C1589.88 1729.13 1584.48 1733.87 1578.48 1738.8C1572.48 1743.73 1566.95 1746.2 1561.88 1746.2ZM1704.52 1746C1686.79 1746 1673.72 1740.47 1665.32 1729.4C1657.06 1718.33 1652.92 1702.93 1652.92 1683.2V1583.8C1652.92 1563.93 1657.06 1548.53 1665.32 1537.6C1673.72 1526.53 1686.79 1521 1704.52 1521C1722.26 1521 1735.32 1526.53 1743.72 1537.6C1752.26 1548.67 1756.52 1564.07 1756.52 1583.8V1601H1716.12V1578.6C1716.12 1572.47 1715.32 1567.33 1713.72 1563.2C1712.12 1559.07 1709.06 1557 1704.52 1557C1699.99 1557 1696.99 1559.13 1695.52 1563.4C1694.06 1567.53 1693.32 1572.6 1693.32 1578.6V1688.4C1693.32 1694.4 1694.06 1699.53 1695.52 1703.8C1696.99 1707.93 1699.99 1710 1704.52 1710C1709.06 1710 1712.12 1707.93 1713.72 1703.8C1715.32 1699.67 1716.12 1694.53 1716.12 1688.4V1666H1756.52V1683.2C1756.52 1702.93 1752.26 1718.33 1743.72 1729.4C1735.32 1740.47 1722.26 1746 1704.52 1746ZM1833.25 1746.2C1820.59 1746.2 1810.92 1743.4 1804.25 1737.8C1797.59 1732.2 1792.99 1724.2 1790.45 1713.8C1788.05 1703.4 1786.85 1691 1786.85 1676.6V1560.6H1766.45V1524.2H1786.85V1470.2H1827.25V1524.2H1855.05V1560.6H1827.25V1682.4C1827.25 1690.93 1828.52 1697.27 1831.05 1701.4C1833.59 1705.4 1837.72 1707.4 1843.45 1707.4C1845.99 1707.4 1848.19 1707.2 1850.05 1706.8C1852.05 1706.4 1853.65 1705.93 1854.85 1705.4V1742.4C1852.19 1743.47 1849.25 1744.33 1846.05 1745C1842.99 1745.8 1838.72 1746.2 1833.25 1746.2ZM1869.03 1743V1524.2H1909.43V1743H1869.03ZM1869.03 1489.4V1449H1909.43V1489.4H1869.03ZM1981.28 1745.8C1965.15 1745.8 1952.48 1740.4 1943.28 1729.6C1934.08 1718.67 1929.48 1704.87 1929.48 1688.2V1578.6C1929.48 1561.93 1934.08 1548.2 1943.28 1537.4C1952.48 1526.47 1965.15 1521 1981.28 1521C1997.28 1521 2009.88 1526.47 2019.08 1537.4C2028.42 1548.2 2033.08 1561.93 2033.08 1578.6V1688.2C2033.08 1704.87 2028.42 1718.67 2019.08 1729.6C2009.88 1740.4 1997.28 1745.8 1981.28 1745.8ZM1981.28 1710.6C1986.48 1710.6 1990.08 1708.53 1992.08 1704.4C1994.08 1700.13 1995.08 1694.73 1995.08 1688.2V1578.6C1995.08 1571.93 1994.08 1566.53 1992.08 1562.4C1990.08 1558.27 1986.48 1556.2 1981.28 1556.2C1976.08 1556.2 1972.48 1558.27 1970.48 1562.4C1968.48 1566.53 1967.48 1571.93 1967.48 1578.6V1688.2C1967.48 1694.87 1968.48 1700.27 1970.48 1704.4C1972.48 1708.53 1976.08 1710.6 1981.28 1710.6ZM2051.02 1743V1524.2H2091.42V1542.6C2096.22 1537.93 2101.62 1533.2 2107.62 1528.4C2113.62 1523.47 2119.15 1521 2124.22 1521C2130.88 1521 2136.48 1523.13 2141.02 1527.4C2145.55 1531.67 2148.95 1537.07 2151.22 1543.6C2153.48 1550.13 2154.62 1556.87 2154.62 1563.8V1743H2114.22V1571.8C2114.22 1567.53 2113.48 1564.53 2112.02 1562.8C2110.55 1561.07 2108.08 1560.2 2104.62 1560.2C2101.68 1560.2 2099.15 1561.27 2097.02 1563.4C2095.02 1565.4 2093.15 1567.8 2091.42 1570.6V1743H2051.02Z" fill="white"/>
<g clip-path="url(#clip0_340_86)">
<path d="M1399.62 871.712L1243.75 759.782H1092.27L1248.15 871.712H1399.62Z" fill="white"/>
<path d="M1495.34 1049.15H1646.81L1490.78 937.148H1339.31L1495.34 1049.15Z" fill="white"/>
<path d="M1742.41 1226.6H1893.96L1737.93 1114.59H1586.38L1742.41 1226.6Z" fill="white"/>
<path d="M1984.97 1291.96H1833.5L1989.45 1403.96H2141L1984.97 1291.96Z" fill="white"/>
<path d="M509.107 1096.72V514.915L956.221 159.533V422.654H927.174V486.406H961.043V523.066C935.096 528.461 915.54 551.498 915.54 579.011C915.54 610.505 941.181 636.143 972.678 636.143C1004.17 636.143 1029.82 610.505 1029.82 579.011H1006.51C1006.51 597.685 991.315 612.877 972.639 612.877C953.963 612.877 938.77 597.685 938.77 579.011C938.77 560.337 953.963 545.145 972.639 545.145H984.274V486.368H1018.14V422.616H989.096V133.359L1056.72 79.6327L1056.03 0L509.107 434.746V313.939L471.985 341.95V464.212L441.177 488.702V365.216L351.356 432.986V560.108L292.84 606.64V477.184L22 681.566V1011L292.84 795.676V686.846L351.356 640.314V1209.99L81.1279 1404H264.52L978.38 891.458L1692.24 1404H1875.63L978.418 759.783L509.145 1096.72H509.107ZM164.137 826.06L74.8898 897.006V788.444L164.137 721.095V826.022V826.06ZM441.215 568.909L472.023 544.418V1123.35L441.215 1145.47V568.909Z" fill="white"/>
<path d="M864.525 1099.82H958.25V1225.37H864.525V1099.82Z" fill="white"/>
<path d="M998.549 1099.82H1092.27V1225.37H998.549V1099.82Z" fill="white"/>
<path d="M864.525 1275.19H958.25V1400.75H864.525V1275.19Z" fill="white"/>
<path d="M998.549 1275.19H1092.27V1400.75H998.549V1275.19Z" fill="white"/>
<path d="M119.514 1010.96H292.841V873.166L119.514 1010.96Z" fill="white"/>
</g>
<defs>
<clipPath id="clip0_340_86">
<rect width="2119" height="1404" fill="white" transform="translate(22)"/>
</clipPath>
</defs>
</svg>
