<svg width="2726" height="960" viewBox="0 0 2726 960" fill="none" xmlns="http://www.w3.org/2000/svg">
    <path d="M1404.98 387V93H1448.18C1464.58 93 1478.25 96.6 1489.18 103.8C1500.25 111 1508.51 121.2 1513.98 134.4C1519.45 147.6 1522.18 163.133 1522.18 181C1522.18 198.867 1519.31 214.267 1513.58 227.2C1507.85 240.133 1499.45 250.267 1488.38 257.6C1477.45 264.8 1464.05 268.733 1448.18 269.4V387H1404.98ZM1448.18 225.4C1455.78 225.4 1461.78 223.933 1466.18 221C1470.58 217.933 1473.71 213.133 1475.58 206.6C1477.58 200.067 1478.58 191.667 1478.58 181.4C1478.58 171 1477.58 162.533 1475.58 156C1473.71 149.467 1470.51 144.667 1465.98 141.6C1461.58 138.533 1455.65 137 1448.18 137V225.4ZM1584.92 390.2C1568.78 390.2 1556.05 384.667 1546.72 373.6C1537.52 362.4 1532.92 348.733 1532.92 332.6V222.6C1532.92 205.533 1537.52 191.667 1546.72 181C1555.92 170.333 1568.78 165 1585.32 165C1596.12 165 1605.38 167.467 1613.12 172.4C1620.98 177.333 1626.98 184.067 1631.12 192.6C1635.25 201 1637.32 210.6 1637.32 221.4V285H1570.52V332.6C1570.52 338.067 1571.72 343.133 1574.12 347.8C1576.65 352.333 1580.38 354.6 1585.32 354.6C1590.52 354.6 1594.18 352.467 1596.32 348.2C1598.58 343.933 1599.72 338.733 1599.72 332.6V308.6H1637.32V333.8C1637.32 350.733 1632.72 364.4 1623.52 374.8C1614.45 385.067 1601.58 390.2 1584.92 390.2ZM1570.52 253.4H1599.72V222.6C1599.72 216.6 1598.65 211.4 1596.52 207C1594.52 202.467 1590.78 200.2 1585.32 200.2C1580.25 200.2 1576.52 202.533 1574.12 207.2C1571.72 211.733 1570.52 216.867 1570.52 222.6V253.4ZM1705.23 390.2C1689.1 390.2 1676.36 384.667 1667.03 373.6C1657.83 362.4 1653.23 348.733 1653.23 332.6V222.6C1653.23 205.533 1657.83 191.667 1667.03 181C1676.23 170.333 1689.1 165 1705.63 165C1716.43 165 1725.7 167.467 1733.43 172.4C1741.3 177.333 1747.3 184.067 1751.43 192.6C1755.56 201 1757.63 210.6 1757.63 221.4V285H1690.83V332.6C1690.83 338.067 1692.03 343.133 1694.43 347.8C1696.96 352.333 1700.7 354.6 1705.63 354.6C1710.83 354.6 1714.5 352.467 1716.63 348.2C1718.9 343.933 1720.03 338.733 1720.03 332.6V308.6H1757.63V333.8C1757.63 350.733 1753.03 364.4 1743.83 374.8C1734.76 385.067 1721.9 390.2 1705.23 390.2ZM1690.83 253.4H1720.03V222.6C1720.03 216.6 1718.96 211.4 1716.83 207C1714.83 202.467 1711.1 200.2 1705.63 200.2C1700.56 200.2 1696.83 202.533 1694.43 207.2C1692.03 211.733 1690.83 216.867 1690.83 222.6V253.4ZM1776.76 387V93H1817.16V387H1776.76ZM1841.21 387V168.2H1881.61V387H1841.21ZM1841.21 133.4V93H1881.61V133.4H1841.21ZM1903.67 387V168.2H1944.07V186.6C1948.87 181.933 1954.27 177.2 1960.27 172.4C1966.27 167.467 1971.8 165 1976.87 165C1983.53 165 1989.13 167.133 1993.67 171.4C1998.2 175.667 2001.6 181.067 2003.87 187.6C2006.13 194.133 2007.27 200.867 2007.27 207.8V387H1966.87V215.8C1966.87 211.533 1966.13 208.533 1964.67 206.8C1963.2 205.067 1960.73 204.2 1957.27 204.2C1954.33 204.2 1951.8 205.267 1949.67 207.4C1947.67 209.4 1945.8 211.8 1944.07 214.6V387H1903.67ZM2084.9 465.4C2073.57 465.4 2062.97 464.133 2053.1 461.6C2043.24 459.067 2035.24 454.933 2029.1 449.2C2023.1 443.6 2020.1 436.2 2020.1 427C2020.1 419.933 2022.04 413.8 2025.9 408.6C2029.9 403.4 2034.44 399.133 2039.5 395.8C2044.57 392.6 2048.64 390.6 2051.7 389.8C2045.17 387.933 2039.44 384.733 2034.5 380.2C2029.7 375.667 2027.3 369.133 2027.3 360.6C2027.3 352.333 2029.97 345.6 2035.3 340.4C2040.64 335.2 2046.37 331 2052.5 327.8C2045.17 323 2039.44 316.733 2035.3 309C2031.3 301.133 2029.3 291.533 2029.3 280.2V220.6C2029.3 204.2 2033.84 190.867 2042.9 180.6C2052.1 170.2 2064.64 165 2080.5 165C2090.77 165 2099.1 167 2105.5 171C2112.04 174.867 2117.17 179.533 2120.9 185C2124.77 178.467 2129.97 173.533 2136.5 170.2C2143.04 166.733 2148.9 165 2154.1 165V201C2148.77 201 2144.1 201.467 2140.1 202.4C2136.1 203.2 2132.9 204.333 2130.5 205.8C2130.9 206.733 2131.3 208.667 2131.7 211.6C2132.24 214.533 2132.5 217.133 2132.5 219.4V281.4C2132.5 296.867 2127.77 309.733 2118.3 320C2108.84 330.267 2096.24 335.4 2080.5 335.4C2076.77 335.4 2074.24 335.267 2072.9 335C2071.17 336.6 2069.77 338.2 2068.7 339.8C2067.77 341.4 2067.3 343.133 2067.3 345C2067.3 349.267 2069.7 352.333 2074.5 354.2C2079.44 355.933 2085.97 357.4 2094.1 358.6C2111.3 361.133 2125.24 366.133 2135.9 373.6C2146.7 381.067 2152.1 393 2152.1 409.4C2152.1 422.2 2148.84 432.733 2142.3 441C2135.9 449.267 2127.57 455.4 2117.3 459.4C2107.04 463.4 2096.24 465.4 2084.9 465.4ZM2085.7 431.4C2092.37 431.4 2098.17 430.2 2103.1 427.8C2108.04 425.4 2110.5 421.667 2110.5 416.6C2110.5 411.533 2108.97 408.067 2105.9 406.2C2102.97 404.467 2097.97 402.733 2090.9 401L2074.1 397C2069.97 399.4 2066.44 402.133 2063.5 405.2C2060.7 408.267 2059.3 411.933 2059.3 416.2C2059.3 420.333 2061.37 423.867 2065.5 426.8C2069.64 429.867 2076.37 431.4 2085.7 431.4ZM2080.9 301.8C2085.17 301.8 2088.24 300.333 2090.1 297.4C2091.97 294.467 2092.9 290.067 2092.9 284.2V220.2C2092.9 214.867 2092.04 210.533 2090.3 207.2C2088.57 203.867 2085.44 202.2 2080.9 202.2C2076.37 202.2 2073.24 203.933 2071.5 207.4C2069.77 210.867 2068.9 215.133 2068.9 220.2V284.2C2068.9 290.067 2069.84 294.467 2071.7 297.4C2073.57 300.333 2076.64 301.8 2080.9 301.8ZM1460.58 870.2C1448.31 870.2 1437.85 867.467 1429.18 862C1420.65 856.4 1414.11 848.8 1409.58 839.2C1405.18 829.6 1402.98 818.733 1402.98 806.6V633.4C1402.98 621.4 1405.25 610.6 1409.78 601C1414.45 591.4 1421.11 583.8 1429.78 578.2C1438.45 572.6 1448.71 569.8 1460.58 569.8C1469.51 569.8 1477.51 571.467 1484.58 574.8C1491.65 578.133 1497.65 582.733 1502.58 588.6C1507.65 594.333 1511.51 601.067 1514.18 608.8C1516.85 616.4 1518.18 624.6 1518.18 633.4V673.8H1477.78V633.4C1477.78 627.267 1476.51 622.133 1473.98 618C1471.45 613.867 1467.25 611.8 1461.38 611.8C1456.05 611.8 1452.18 613.933 1449.78 618.2C1447.38 622.467 1446.18 627.533 1446.18 633.4V806.6C1446.18 812.467 1447.45 817.533 1449.98 821.8C1452.65 826.067 1456.45 828.2 1461.38 828.2C1467.38 828.2 1471.58 826.133 1473.98 822C1476.51 817.867 1477.78 812.733 1477.78 806.6V766.2H1518.18V806.6C1518.18 818.6 1515.85 829.4 1511.18 839C1506.51 848.6 1499.85 856.2 1491.18 861.8C1482.65 867.4 1472.45 870.2 1460.58 870.2ZM1592.14 869.8C1576 869.8 1563.34 864.4 1554.14 853.6C1544.94 842.667 1540.34 828.867 1540.34 812.2V702.6C1540.34 685.933 1544.94 672.2 1554.14 661.4C1563.34 650.467 1576 645 1592.14 645C1608.14 645 1620.74 650.467 1629.94 661.4C1639.27 672.2 1643.94 685.933 1643.94 702.6V812.2C1643.94 828.867 1639.27 842.667 1629.94 853.6C1620.74 864.4 1608.14 869.8 1592.14 869.8ZM1592.14 834.6C1597.34 834.6 1600.94 832.533 1602.94 828.4C1604.94 824.133 1605.94 818.733 1605.94 812.2V702.6C1605.94 695.933 1604.94 690.533 1602.94 686.4C1600.94 682.267 1597.34 680.2 1592.14 680.2C1586.94 680.2 1583.34 682.267 1581.34 686.4C1579.34 690.533 1578.34 695.933 1578.34 702.6V812.2C1578.34 818.867 1579.34 824.267 1581.34 828.4C1583.34 832.533 1586.94 834.6 1592.14 834.6ZM1661.87 867V648.2H1702.27V666.6C1707.07 661.933 1712.47 657.2 1718.47 652.4C1724.47 647.467 1730 645 1735.07 645C1741.74 645 1747.34 647.133 1751.87 651.4C1756.4 655.667 1759.8 661.067 1762.07 667.6C1764.34 674.133 1765.47 680.867 1765.47 687.8V867H1725.07V695.8C1725.07 691.533 1724.34 688.533 1722.87 686.8C1721.4 685.067 1718.94 684.2 1715.47 684.2C1712.54 684.2 1710 685.267 1707.87 687.4C1705.87 689.4 1704 691.8 1702.27 694.6V867H1661.87ZM1837.71 870.2C1828.24 870.2 1819.97 868.6 1812.91 865.4C1805.84 862.2 1799.97 857.667 1795.31 851.8C1790.64 845.8 1787.11 838.733 1784.71 830.6C1782.44 822.467 1781.31 813.4 1781.31 803.4H1818.91C1818.91 812.333 1820.31 820.133 1823.11 826.8C1826.04 833.333 1830.91 836.6 1837.71 836.6C1843.57 836.6 1847.37 834.133 1849.11 829.2C1850.84 824.267 1851.71 818.6 1851.71 812.2C1851.71 804.733 1848.77 797.133 1842.91 789.4C1837.17 781.533 1831.17 774.533 1824.91 768.4C1814.11 757.733 1805.11 747.2 1797.91 736.8C1790.84 726.4 1787.31 714.2 1787.31 700.2C1787.31 683.667 1791.64 670.333 1800.31 660.2C1808.97 650.067 1821.31 645 1837.31 645C1846.91 645 1854.97 646.267 1861.51 648.8C1868.17 651.333 1873.51 655.133 1877.51 660.2C1881.51 665.267 1884.37 671.467 1886.11 678.8C1887.97 686.133 1888.91 694.6 1888.91 704.2H1851.31C1851.31 697.267 1850.57 691.267 1849.11 686.2C1847.64 681.133 1843.97 678.6 1838.11 678.6C1833.31 678.6 1829.91 680.667 1827.91 684.8C1825.91 688.8 1824.91 693.933 1824.91 700.2C1824.91 707.533 1826.64 714.067 1830.11 719.8C1833.71 725.4 1839.64 732.267 1847.91 740.4C1858.31 750.533 1867.77 761.333 1876.31 772.8C1884.97 784.267 1889.31 796.733 1889.31 810.2C1889.31 819 1888.11 827.067 1885.71 834.4C1883.44 841.733 1880.04 848.067 1875.51 853.4C1871.11 858.733 1865.71 862.867 1859.31 865.8C1853.04 868.733 1845.84 870.2 1837.71 870.2ZM1964.03 870.2C1951.36 870.2 1941.7 867.4 1935.03 861.8C1928.36 856.2 1923.76 848.2 1921.23 837.8C1918.83 827.4 1917.63 815 1917.63 800.6V684.6H1897.23V648.2H1917.63V594.2H1958.03V648.2H1985.83V684.6H1958.03V806.4C1958.03 814.933 1959.3 821.267 1961.83 825.4C1964.36 829.4 1968.5 831.4 1974.23 831.4C1976.76 831.4 1978.96 831.2 1980.83 830.8C1982.83 830.4 1984.43 829.933 1985.63 829.4V866.4C1982.96 867.467 1980.03 868.333 1976.83 869C1973.76 869.8 1969.5 870.2 1964.03 870.2ZM1997.81 867V648.2H2038.21V672.6C2039.01 667.267 2041.47 662.533 2045.61 658.4C2049.74 654.267 2054.74 651 2060.61 648.6C2066.61 646.2 2072.61 645 2078.61 645V689.8C2076.87 689.133 2075.01 688.733 2073.01 688.6C2071.14 688.333 2069.27 688.2 2067.41 688.2C2058.61 688.2 2051.54 690.6 2046.21 695.4C2040.87 700.2 2038.21 706.733 2038.21 715V867H1997.81ZM2123.13 870.2C2116.46 870.2 2110.86 868.067 2106.33 863.8C2101.8 859.533 2098.4 854.133 2096.13 847.6C2093.86 840.933 2092.73 834.2 2092.73 827.4V648.2H2133.13V819.4C2133.13 823.533 2133.86 826.533 2135.33 828.4C2136.93 830.133 2139.4 831 2142.73 831C2145.66 831 2148.13 830 2150.13 828C2152.26 825.867 2154.2 823.4 2155.93 820.6V648.2H2196.33V867H2155.93V848.6C2151.13 853.133 2145.73 857.867 2139.73 862.8C2133.73 867.733 2128.2 870.2 2123.13 870.2ZM2265.77 870C2248.03 870 2234.97 864.467 2226.57 853.4C2218.3 842.333 2214.17 826.933 2214.17 807.2V707.8C2214.17 687.933 2218.3 672.533 2226.57 661.6C2234.97 650.533 2248.03 645 2265.77 645C2283.5 645 2296.57 650.533 2304.97 661.6C2313.5 672.667 2317.77 688.067 2317.77 707.8V725H2277.37V702.6C2277.37 696.467 2276.57 691.333 2274.97 687.2C2273.37 683.067 2270.3 681 2265.77 681C2261.23 681 2258.23 683.133 2256.77 687.4C2255.3 691.533 2254.57 696.6 2254.57 702.6V812.4C2254.57 818.4 2255.3 823.533 2256.77 827.8C2258.23 831.933 2261.23 834 2265.77 834C2270.3 834 2273.37 831.933 2274.97 827.8C2276.57 823.667 2277.37 818.533 2277.37 812.4V790H2317.77V807.2C2317.77 826.933 2313.5 842.333 2304.97 853.4C2296.57 864.467 2283.5 870 2265.77 870ZM2394.5 870.2C2381.83 870.2 2372.16 867.4 2365.5 861.8C2358.83 856.2 2354.23 848.2 2351.7 837.8C2349.3 827.4 2348.1 815 2348.1 800.6V684.6H2327.7V648.2H2348.1V594.2H2388.5V648.2H2416.3V684.6H2388.5V806.4C2388.5 814.933 2389.76 821.267 2392.3 825.4C2394.83 829.4 2398.96 831.4 2404.7 831.4C2407.23 831.4 2409.43 831.2 2411.3 830.8C2413.3 830.4 2414.9 829.933 2416.1 829.4V866.4C2413.43 867.467 2410.5 868.333 2407.3 869C2404.23 869.8 2399.96 870.2 2394.5 870.2ZM2430.28 867V648.2H2470.68V867H2430.28ZM2430.28 613.4V573H2470.68V613.4H2430.28ZM2542.53 869.8C2526.4 869.8 2513.73 864.4 2504.53 853.6C2495.33 842.667 2490.73 828.867 2490.73 812.2V702.6C2490.73 685.933 2495.33 672.2 2504.53 661.4C2513.73 650.467 2526.4 645 2542.53 645C2558.53 645 2571.13 650.467 2580.33 661.4C2589.66 672.2 2594.33 685.933 2594.33 702.6V812.2C2594.33 828.867 2589.66 842.667 2580.33 853.6C2571.13 864.4 2558.53 869.8 2542.53 869.8ZM2542.53 834.6C2547.73 834.6 2551.33 832.533 2553.33 828.4C2555.33 824.133 2556.33 818.733 2556.33 812.2V702.6C2556.33 695.933 2555.33 690.533 2553.33 686.4C2551.33 682.267 2547.73 680.2 2542.53 680.2C2537.33 680.2 2533.73 682.267 2531.73 686.4C2529.73 690.533 2528.73 695.933 2528.73 702.6V812.2C2528.73 818.867 2529.73 824.267 2531.73 828.4C2533.73 832.533 2537.33 834.6 2542.53 834.6ZM2612.26 867V648.2H2652.66V666.6C2657.46 661.933 2662.86 657.2 2668.86 652.4C2674.86 647.467 2680.39 645 2685.46 645C2692.13 645 2697.73 647.133 2702.26 651.4C2706.79 655.667 2710.19 661.067 2712.46 667.6C2714.73 674.133 2715.86 680.867 2715.86 687.8V867H2675.46V695.8C2675.46 691.533 2674.73 688.533 2673.26 686.8C2671.79 685.067 2669.33 684.2 2665.86 684.2C2662.93 684.2 2660.39 685.267 2658.26 687.4C2656.26 689.4 2654.39 691.8 2652.66 694.6V867H2612.26Z" fill="white"/>
    <g clip-path="url(#clip0_348_87)">
        <path d="M851.182 538.301L754.926 469.182H661.387L757.643 538.301H851.182Z" fill="white"/>
        <path d="M910.289 647.875H1003.83L907.476 578.709H813.938L910.289 647.875Z" fill="white"/>
        <path d="M1062.86 757.449H1156.45L1060.1 688.283H966.512L1062.86 757.449Z" fill="white"/>
        <path d="M1212.65 797.81H1119.11L1215.41 866.976H1309L1212.65 797.81Z" fill="white"/>
        <path d="M301.27 677.248V317.971L577.372 98.5152V260.998H559.435V300.366H580.35V323.004C564.327 326.336 552.251 340.562 552.251 357.552C552.251 377 568.085 392.832 587.535 392.832C606.984 392.832 622.818 377 622.818 357.552H608.426C608.426 369.083 599.044 378.465 587.511 378.465C575.978 378.465 566.596 369.083 566.596 357.552C566.596 346.02 575.978 336.639 587.511 336.639H594.695V300.343H615.61V260.974H597.673V82.352L639.432 49.1749L639.007 0L301.27 268.465V193.864L278.346 211.161V286.661L259.321 301.784V225.529L203.855 267.378V345.878L167.72 374.613V294.671L0.470703 420.881V624.316L167.72 491.347V424.142L203.855 395.408V747.194L36.9835 867H150.232L591.056 550.494L1031.88 867H1145.13L591.079 469.182L301.293 677.248H301.27ZM88.2431 510.11L33.1313 553.921V486.881L88.2431 445.292V510.086V510.11ZM259.345 351.313L278.369 336.19V693.695L259.345 707.353V351.313Z" fill="white"/>
        <path d="M520.748 679.162H578.625V756.693H520.748V679.162Z" fill="white"/>
        <path d="M603.51 679.162H661.387V756.693H603.51V679.162Z" fill="white"/>
        <path d="M520.748 787.46H578.625V864.991H520.748V787.46Z" fill="white"/>
        <path d="M603.51 787.46H661.387V864.991H603.51V787.46Z" fill="white"/>
        <path d="M60.6875 624.292H167.721V539.199L60.6875 624.292Z" fill="white"/>
    </g>
    <defs>
        <clipPath id="clip0_348_87">
            <rect width="1308.53" height="867" fill="white" transform="translate(0.470703)"/>
        </clipPath>
    </defs>
</svg>
