<svg width="2692" height="480" viewBox="0 0 2692 480" fill="none" xmlns="http://www.w3.org/2000/svg">
<path d="M254.889 467.904C251.732 472.443 248.131 472.836 243.042 471.4C218.578 464.497 193.978 458.074 169.588 451.524C244.047 377.064 318.53 302.582 393.747 227.364C384.371 224.812 376.361 222.602 368.322 220.503C367.677 220.334 366.749 220.806 366.102 221.216C365.407 221.656 364.889 222.374 364.292 222.97C304.477 282.785 244.652 342.59 184.886 402.454C182.875 404.469 181.235 405.034 178.332 404.24C152.767 397.248 127.138 390.485 101.719 383.706C177.426 307.999 253.167 232.257 329.65 155.775C320.577 152.891 312.905 150.353 305.147 148.116C304.223 147.85 302.584 148.977 301.686 149.871C283.152 168.314 264.675 186.817 246.189 205.31C238.863 212.639 231.583 220.015 224.161 227.246C223.225 228.158 221.368 229.016 220.249 228.722C194.06 221.826 167.913 214.768 141.355 207.631C142.092 206.698 142.579 205.935 143.204 205.31C188.865 159.628 234.545 113.966 280.17 68.2501C281.651 66.7665 282.908 66.4939 284.867 67.0232C310.109 73.8422 335.369 80.5909 360.636 87.3162C362.583 87.8344 363.486 88.8083 364.023 90.8634C368.718 108.849 373.615 126.782 378.351 144.757C379.001 147.226 380.125 148.389 382.734 149.062C400.618 153.671 418.434 158.548 436.291 163.261C438.466 163.835 439.597 164.785 440.211 167.126C447.947 196.593 455.767 226.039 463.757 255.439C464.484 258.114 463.49 259.346 461.898 260.937C392.94 329.85 324.006 398.787 254.889 467.904Z" fill="white"/>
<path d="M133.64 79.0992C156.742 55.9945 179.683 33.0892 202.551 10.1119C204.428 8.22606 205.979 7.54137 208.78 8.30927C233.998 15.2221 259.273 21.923 284.532 28.6866C284.953 28.7995 285.373 28.9179 285.72 29.0133C212.876 101.856 140.156 174.576 66.6653 248.067C70.6321 249.163 73.4016 249.946 76.1806 250.693C80.8165 251.94 85.5334 252.943 90.0688 254.483C92.608 255.345 94.0167 254.565 95.6889 252.865C103.718 244.704 111.802 236.596 120.008 228.615C120.997 227.654 123.035 226.876 124.274 227.202C150.366 234.056 176.413 241.081 202.943 248.2C202.096 249.19 201.488 250.007 200.775 250.719C174.195 277.313 147.596 303.888 121.045 330.511C119.632 331.928 118.474 332.385 116.401 331.825C86.636 323.789 56.8317 315.899 27.0713 307.847C25.8873 307.526 24.4514 306.101 24.1319 304.92C16.0822 275.166 8.19075 245.37 0.180939 215.606C-0.446109 213.276 0.648265 212.077 2.05573 210.671C45.8692 166.886 89.6627 123.082 133.64 79.0992Z" fill="white"/>
<path d="M543 387V93H586.2C602.6 93 616.267 96.6 627.2 103.8C638.267 111 646.533 121.2 652 134.4C657.467 147.6 660.2 163.133 660.2 181C660.2 198.867 657.333 214.267 651.6 227.2C645.867 240.133 637.467 250.267 626.4 257.6C615.467 264.8 602.067 268.733 586.2 269.4V387H543ZM586.2 225.4C593.8 225.4 599.8 223.933 604.2 221C608.6 217.933 611.733 213.133 613.6 206.6C615.6 200.067 616.6 191.667 616.6 181.4C616.6 171 615.6 162.533 613.6 156C611.733 149.467 608.533 144.667 604 141.6C599.6 138.533 593.667 137 586.2 137V225.4ZM722.938 390.2C706.804 390.2 694.071 384.667 684.738 373.6C675.538 362.4 670.938 348.733 670.938 332.6V222.6C670.938 205.533 675.538 191.667 684.738 181C693.938 170.333 706.804 165 723.338 165C734.138 165 743.404 167.467 751.138 172.4C759.004 177.333 765.004 184.067 769.138 192.6C773.271 201 775.338 210.6 775.338 221.4V285H708.538V332.6C708.538 338.067 709.738 343.133 712.138 347.8C714.671 352.333 718.404 354.6 723.338 354.6C728.538 354.6 732.204 352.467 734.338 348.2C736.604 343.933 737.738 338.733 737.738 332.6V308.6H775.338V333.8C775.338 350.733 770.738 364.4 761.538 374.8C752.471 385.067 739.604 390.2 722.938 390.2ZM708.538 253.4H737.738V222.6C737.738 216.6 736.671 211.4 734.538 207C732.538 202.467 728.804 200.2 723.338 200.2C718.271 200.2 714.538 202.533 712.138 207.2C709.738 211.733 708.538 216.867 708.538 222.6V253.4ZM843.25 390.2C827.117 390.2 814.383 384.667 805.05 373.6C795.85 362.4 791.25 348.733 791.25 332.6V222.6C791.25 205.533 795.85 191.667 805.05 181C814.25 170.333 827.117 165 843.65 165C854.45 165 863.717 167.467 871.45 172.4C879.317 177.333 885.317 184.067 889.45 192.6C893.583 201 895.65 210.6 895.65 221.4V285H828.85V332.6C828.85 338.067 830.05 343.133 832.45 347.8C834.983 352.333 838.717 354.6 843.65 354.6C848.85 354.6 852.517 352.467 854.65 348.2C856.917 343.933 858.05 338.733 858.05 332.6V308.6H895.65V333.8C895.65 350.733 891.05 364.4 881.85 374.8C872.783 385.067 859.917 390.2 843.25 390.2ZM828.85 253.4H858.05V222.6C858.05 216.6 856.983 211.4 854.85 207C852.85 202.467 849.117 200.2 843.65 200.2C838.583 200.2 834.85 202.533 832.45 207.2C830.05 211.733 828.85 216.867 828.85 222.6V253.4ZM914.781 387V93H955.181V387H914.781ZM979.234 387V168.2H1019.63V387H979.234ZM979.234 133.4V93H1019.63V133.4H979.234ZM1041.69 387V168.2H1082.09V186.6C1086.89 181.933 1092.29 177.2 1098.29 172.4C1104.29 167.467 1109.82 165 1114.89 165C1121.55 165 1127.15 167.133 1131.69 171.4C1136.22 175.667 1139.62 181.067 1141.89 187.6C1144.15 194.133 1145.29 200.867 1145.29 207.8V387H1104.89V215.8C1104.89 211.533 1104.15 208.533 1102.69 206.8C1101.22 205.067 1098.75 204.2 1095.29 204.2C1092.35 204.2 1089.82 205.267 1087.69 207.4C1085.69 209.4 1083.82 211.8 1082.09 214.6V387H1041.69ZM1222.93 465.4C1211.59 465.4 1200.99 464.133 1191.13 461.6C1181.26 459.067 1173.26 454.933 1167.13 449.2C1161.13 443.6 1158.13 436.2 1158.13 427C1158.13 419.933 1160.06 413.8 1163.93 408.6C1167.93 403.4 1172.46 399.133 1177.53 395.8C1182.59 392.6 1186.66 390.6 1189.73 389.8C1183.19 387.933 1177.46 384.733 1172.53 380.2C1167.73 375.667 1165.33 369.133 1165.33 360.6C1165.33 352.333 1167.99 345.6 1173.33 340.4C1178.66 335.2 1184.39 331 1190.53 327.8C1183.19 323 1177.46 316.733 1173.33 309C1169.33 301.133 1167.33 291.533 1167.33 280.2V220.6C1167.33 204.2 1171.86 190.867 1180.93 180.6C1190.13 170.2 1202.66 165 1218.53 165C1228.79 165 1237.13 167 1243.53 171C1250.06 174.867 1255.19 179.533 1258.93 185C1262.79 178.467 1267.99 173.533 1274.53 170.2C1281.06 166.733 1286.93 165 1292.13 165V201C1286.79 201 1282.13 201.467 1278.13 202.4C1274.13 203.2 1270.93 204.333 1268.53 205.8C1268.93 206.733 1269.33 208.667 1269.73 211.6C1270.26 214.533 1270.53 217.133 1270.53 219.4V281.4C1270.53 296.867 1265.79 309.733 1256.33 320C1246.86 330.267 1234.26 335.4 1218.53 335.4C1214.79 335.4 1212.26 335.267 1210.93 335C1209.19 336.6 1207.79 338.2 1206.73 339.8C1205.79 341.4 1205.33 343.133 1205.33 345C1205.33 349.267 1207.73 352.333 1212.53 354.2C1217.46 355.933 1223.99 357.4 1232.13 358.6C1249.33 361.133 1263.26 366.133 1273.93 373.6C1284.73 381.067 1290.13 393 1290.13 409.4C1290.13 422.2 1286.86 432.733 1280.33 441C1273.93 449.267 1265.59 455.4 1255.33 459.4C1245.06 463.4 1234.26 465.4 1222.93 465.4ZM1223.73 431.4C1230.39 431.4 1236.19 430.2 1241.13 427.8C1246.06 425.4 1248.53 421.667 1248.53 416.6C1248.53 411.533 1246.99 408.067 1243.93 406.2C1240.99 404.467 1235.99 402.733 1228.93 401L1212.13 397C1207.99 399.4 1204.46 402.133 1201.53 405.2C1198.73 408.267 1197.33 411.933 1197.33 416.2C1197.33 420.333 1199.39 423.867 1203.53 426.8C1207.66 429.867 1214.39 431.4 1223.73 431.4ZM1218.93 301.8C1223.19 301.8 1226.26 300.333 1228.13 297.4C1229.99 294.467 1230.93 290.067 1230.93 284.2V220.2C1230.93 214.867 1230.06 210.533 1228.33 207.2C1226.59 203.867 1223.46 202.2 1218.93 202.2C1214.39 202.2 1211.26 203.933 1209.53 207.4C1207.79 210.867 1206.93 215.133 1206.93 220.2V284.2C1206.93 290.067 1207.86 294.467 1209.73 297.4C1211.59 300.333 1214.66 301.8 1218.93 301.8ZM1426.33 390.2C1414.07 390.2 1403.6 387.467 1394.93 382C1386.4 376.4 1379.87 368.8 1375.33 359.2C1370.93 349.6 1368.73 338.733 1368.73 326.6V153.4C1368.73 141.4 1371 130.6 1375.53 121C1380.2 111.4 1386.87 103.8 1395.53 98.2C1404.2 92.6 1414.47 89.8 1426.33 89.8C1435.27 89.8 1443.27 91.4667 1450.33 94.8C1457.4 98.1333 1463.4 102.733 1468.33 108.6C1473.4 114.333 1477.27 121.067 1479.93 128.8C1482.6 136.4 1483.93 144.6 1483.93 153.4V193.8H1443.53V153.4C1443.53 147.267 1442.27 142.133 1439.73 138C1437.2 133.867 1433 131.8 1427.13 131.8C1421.8 131.8 1417.93 133.933 1415.53 138.2C1413.13 142.467 1411.93 147.533 1411.93 153.4V326.6C1411.93 332.467 1413.2 337.533 1415.73 341.8C1418.4 346.067 1422.2 348.2 1427.13 348.2C1433.13 348.2 1437.33 346.133 1439.73 342C1442.27 337.867 1443.53 332.733 1443.53 326.6V286.2H1483.93V326.6C1483.93 338.6 1481.6 349.4 1476.93 359C1472.27 368.6 1465.6 376.2 1456.93 381.8C1448.4 387.4 1438.2 390.2 1426.33 390.2ZM1557.89 389.8C1541.76 389.8 1529.09 384.4 1519.89 373.6C1510.69 362.667 1506.09 348.867 1506.09 332.2V222.6C1506.09 205.933 1510.69 192.2 1519.89 181.4C1529.09 170.467 1541.76 165 1557.89 165C1573.89 165 1586.49 170.467 1595.69 181.4C1605.03 192.2 1609.69 205.933 1609.69 222.6V332.2C1609.69 348.867 1605.03 362.667 1595.69 373.6C1586.49 384.4 1573.89 389.8 1557.89 389.8ZM1557.89 354.6C1563.09 354.6 1566.69 352.533 1568.69 348.4C1570.69 344.133 1571.69 338.733 1571.69 332.2V222.6C1571.69 215.933 1570.69 210.533 1568.69 206.4C1566.69 202.267 1563.09 200.2 1557.89 200.2C1552.69 200.2 1549.09 202.267 1547.09 206.4C1545.09 210.533 1544.09 215.933 1544.09 222.6V332.2C1544.09 338.867 1545.09 344.267 1547.09 348.4C1549.09 352.533 1552.69 354.6 1557.89 354.6ZM1627.63 387V168.2H1668.03V186.6C1672.83 181.933 1678.23 177.2 1684.23 172.4C1690.23 167.467 1695.76 165 1700.83 165C1707.49 165 1713.09 167.133 1717.62 171.4C1722.16 175.667 1725.56 181.067 1727.82 187.6C1730.09 194.133 1731.23 200.867 1731.23 207.8V387H1690.83V215.8C1690.83 211.533 1690.09 208.533 1688.63 206.8C1687.16 205.067 1684.69 204.2 1681.23 204.2C1678.29 204.2 1675.76 205.267 1673.63 207.4C1671.63 209.4 1669.76 211.8 1668.03 214.6V387H1627.63ZM1803.46 390.2C1794 390.2 1785.73 388.6 1778.66 385.4C1771.6 382.2 1765.73 377.667 1761.06 371.8C1756.4 365.8 1752.86 358.733 1750.46 350.6C1748.2 342.467 1747.06 333.4 1747.06 323.4H1784.66C1784.66 332.333 1786.06 340.133 1788.86 346.8C1791.8 353.333 1796.66 356.6 1803.46 356.6C1809.33 356.6 1813.13 354.133 1814.86 349.2C1816.6 344.267 1817.46 338.6 1817.46 332.2C1817.46 324.733 1814.53 317.133 1808.66 309.4C1802.93 301.533 1796.93 294.533 1790.66 288.4C1779.86 277.733 1770.86 267.2 1763.66 256.8C1756.6 246.4 1753.06 234.2 1753.06 220.2C1753.06 203.667 1757.4 190.333 1766.06 180.2C1774.73 170.067 1787.06 165 1803.06 165C1812.66 165 1820.73 166.267 1827.26 168.8C1833.93 171.333 1839.26 175.133 1843.26 180.2C1847.26 185.267 1850.13 191.467 1851.86 198.8C1853.73 206.133 1854.66 214.6 1854.66 224.2H1817.06C1817.06 217.267 1816.33 211.267 1814.86 206.2C1813.4 201.133 1809.73 198.6 1803.86 198.6C1799.06 198.6 1795.66 200.667 1793.66 204.8C1791.66 208.8 1790.66 213.933 1790.66 220.2C1790.66 227.533 1792.4 234.067 1795.86 239.8C1799.46 245.4 1805.4 252.267 1813.66 260.4C1824.06 270.533 1833.53 281.333 1842.06 292.8C1850.73 304.267 1855.06 316.733 1855.06 330.2C1855.06 339 1853.86 347.067 1851.46 354.4C1849.2 361.733 1845.8 368.067 1841.26 373.4C1836.86 378.733 1831.46 382.867 1825.06 385.8C1818.8 388.733 1811.6 390.2 1803.46 390.2ZM1929.78 390.2C1917.12 390.2 1907.45 387.4 1900.78 381.8C1894.12 376.2 1889.52 368.2 1886.98 357.8C1884.58 347.4 1883.38 335 1883.38 320.6V204.6H1862.98V168.2H1883.38V114.2H1923.78V168.2H1951.58V204.6H1923.78V326.4C1923.78 334.933 1925.05 341.267 1927.58 345.4C1930.12 349.4 1934.25 351.4 1939.98 351.4C1942.52 351.4 1944.72 351.2 1946.58 350.8C1948.58 350.4 1950.18 349.933 1951.38 349.4V386.4C1948.72 387.467 1945.78 388.333 1942.58 389C1939.52 389.8 1935.25 390.2 1929.78 390.2ZM1963.56 387V168.2H2003.96V192.6C2004.76 187.267 2007.23 182.533 2011.36 178.4C2015.5 174.267 2020.5 171 2026.36 168.6C2032.36 166.2 2038.36 165 2044.36 165V209.8C2042.63 209.133 2040.76 208.733 2038.76 208.6C2036.9 208.333 2035.03 208.2 2033.16 208.2C2024.36 208.2 2017.3 210.6 2011.96 215.4C2006.63 220.2 2003.96 226.733 2003.96 235V387H1963.56ZM2088.88 390.2C2082.22 390.2 2076.62 388.067 2072.08 383.8C2067.55 379.533 2064.15 374.133 2061.88 367.6C2059.62 360.933 2058.48 354.2 2058.48 347.4V168.2H2098.88V339.4C2098.88 343.533 2099.62 346.533 2101.08 348.4C2102.68 350.133 2105.15 351 2108.48 351C2111.42 351 2113.88 350 2115.88 348C2118.02 345.867 2119.95 343.4 2121.68 340.6V168.2H2162.08V387H2121.68V368.6C2116.88 373.133 2111.48 377.867 2105.48 382.8C2099.48 387.733 2093.95 390.2 2088.88 390.2ZM2231.52 390C2213.79 390 2200.72 384.467 2192.32 373.4C2184.06 362.333 2179.92 346.933 2179.92 327.2V227.8C2179.92 207.933 2184.06 192.533 2192.32 181.6C2200.72 170.533 2213.79 165 2231.52 165C2249.26 165 2262.32 170.533 2270.72 181.6C2279.26 192.667 2283.52 208.067 2283.52 227.8V245H2243.12V222.6C2243.12 216.467 2242.32 211.333 2240.72 207.2C2239.12 203.067 2236.06 201 2231.52 201C2226.99 201 2223.99 203.133 2222.52 207.4C2221.06 211.533 2220.32 216.6 2220.32 222.6V332.4C2220.32 338.4 2221.06 343.533 2222.52 347.8C2223.99 351.933 2226.99 354 2231.52 354C2236.06 354 2239.12 351.933 2240.72 347.8C2242.32 343.667 2243.12 338.533 2243.12 332.4V310H2283.52V327.2C2283.52 346.933 2279.26 362.333 2270.72 373.4C2262.32 384.467 2249.26 390 2231.52 390ZM2360.25 390.2C2347.59 390.2 2337.92 387.4 2331.25 381.8C2324.59 376.2 2319.99 368.2 2317.45 357.8C2315.05 347.4 2313.85 335 2313.85 320.6V204.6H2293.45V168.2H2313.85V114.2H2354.25V168.2H2382.05V204.6H2354.25V326.4C2354.25 334.933 2355.52 341.267 2358.05 345.4C2360.59 349.4 2364.72 351.4 2370.45 351.4C2372.99 351.4 2375.19 351.2 2377.05 350.8C2379.05 350.4 2380.65 349.933 2381.85 349.4V386.4C2379.19 387.467 2376.25 388.333 2373.05 389C2369.99 389.8 2365.72 390.2 2360.25 390.2ZM2396.03 387V168.2H2436.43V387H2396.03ZM2396.03 133.4V93H2436.43V133.4H2396.03ZM2508.28 389.8C2492.15 389.8 2479.48 384.4 2470.28 373.6C2461.08 362.667 2456.48 348.867 2456.48 332.2V222.6C2456.48 205.933 2461.08 192.2 2470.28 181.4C2479.48 170.467 2492.15 165 2508.28 165C2524.28 165 2536.88 170.467 2546.08 181.4C2555.42 192.2 2560.08 205.933 2560.08 222.6V332.2C2560.08 348.867 2555.42 362.667 2546.08 373.6C2536.88 384.4 2524.28 389.8 2508.28 389.8ZM2508.28 354.6C2513.48 354.6 2517.08 352.533 2519.08 348.4C2521.08 344.133 2522.08 338.733 2522.08 332.2V222.6C2522.08 215.933 2521.08 210.533 2519.08 206.4C2517.08 202.267 2513.48 200.2 2508.28 200.2C2503.08 200.2 2499.48 202.267 2497.48 206.4C2495.48 210.533 2494.48 215.933 2494.48 222.6V332.2C2494.48 338.867 2495.48 344.267 2497.48 348.4C2499.48 352.533 2503.08 354.6 2508.28 354.6ZM2578.02 387V168.2H2618.42V186.6C2623.22 181.933 2628.62 177.2 2634.62 172.4C2640.62 167.467 2646.15 165 2651.22 165C2657.88 165 2663.48 167.133 2668.02 171.4C2672.55 175.667 2675.95 181.067 2678.22 187.6C2680.48 194.133 2681.62 200.867 2681.62 207.8V387H2641.22V215.8C2641.22 211.533 2640.48 208.533 2639.02 206.8C2637.55 205.067 2635.08 204.2 2631.62 204.2C2628.68 204.2 2626.15 205.267 2624.02 207.4C2622.02 209.4 2620.15 211.8 2618.42 214.6V387H2578.02Z" fill="white"/>
</svg>
